<svg width="500" height="500" viewBox="0 0 500 500" fill="none" xmlns="http://www.w3.org/2000/svg">
<path d="M288.31 447.29C288.31 447.29 241.59 456.75 199.08 447.29C173.08 441.5 118.32 427.77 105.4 396.65C92.48 365.53 154.7 338.98 124.13 307.41C110.94 293.79 47.64 275.82 51.2 187.49C54.76 99.16 147.5 45.3 276.39 47.7C405.28 50.1 479.64 167.28 429.8 225C379.96 282.72 358.49 282.88 381.09 329.87C403.69 376.86 372.31 433.83 288.31 447.29Z" fill="#BEE7CA"/>
<path opacity="0.7" d="M288.31 447.29C288.31 447.29 241.59 456.75 199.08 447.29C173.08 441.5 118.32 427.77 105.4 396.65C92.48 365.53 154.7 338.98 124.13 307.41C110.94 293.79 47.64 275.82 51.2 187.49C54.76 99.16 147.5 45.3 276.39 47.7C405.28 50.1 479.64 167.28 429.8 225C379.96 282.72 358.49 282.88 381.09 329.87C403.69 376.86 372.31 433.83 288.31 447.29Z" fill="white"/>
<path d="M140.81 410.6C141.304 410.603 141.782 410.423 142.152 410.094C142.521 409.765 142.756 409.311 142.81 408.82L144.14 408.69L145.34 421.2L143.34 421.38L142.43 411.85L141 412L140.81 410.6Z" fill="#263238"/>
<path d="M152.42 399.01L157.22 395.4" stroke="#263238" stroke-linecap="round" stroke-linejoin="round"/>
<path d="M141.14 397.55L147.08 403.03L150.45 400.5" stroke="#263238" stroke-linecap="round" stroke-linejoin="round"/>
<path d="M130.16 410.95L125.89 405.85L136.46 406.14L135 391.88L137.44 394.13" stroke="#263238" stroke-linecap="round" stroke-linejoin="round"/>
<path d="M135.19 427.43L136.06 422.59L123.89 419.29L133.19 414.55L131.91 413.03" stroke="#263238" stroke-linecap="round" stroke-linejoin="round"/>
<path d="M146.21 430.56L142.44 426.56L134.32 432.29L134.72 430.04" stroke="#263238" stroke-linecap="round" stroke-linejoin="round"/>
<path d="M148.89 433.4L147.83 432.27" stroke="#263238" stroke-linecap="round" stroke-linejoin="round"/>
<path d="M157.22 425.49L152.78 424.36L154.6 439.45L151.98 436.67" stroke="#263238" stroke-linecap="round" stroke-linejoin="round"/>
<path d="M160.2 417.32L156.82 419.07L165.67 427.65L159.83 426.16" stroke="#263238" stroke-linecap="round" stroke-linejoin="round"/>
<path d="M162.5 414.32L164.15 415.28L162.27 416.25" stroke="#263238" stroke-linecap="round" stroke-linejoin="round"/>
<path d="M160.4 398.05L156.33 410.71L161.01 413.45" stroke="#263238" stroke-linecap="round" stroke-linejoin="round"/>
<path d="M159.37 369.48C158.63 369.55 158.21 369.99 158.31 371.04L158.46 372.61L156.28 372.81L156.15 371.39C155.92 369.04 156.97 367.59 159.23 367.39C161.49 367.19 162.79 368.39 163.02 370.75C163.2 372.69 162.64 374.33 160.72 376.82C159.5 378.42 159.19 379.14 159.26 379.92C159.267 380.025 159.284 380.129 159.31 380.23L163.67 379.81L163.87 381.91L157.2 382.54L157.03 380.74C156.88 379.11 157.35 377.82 158.89 375.85C160.43 373.88 160.89 372.62 160.72 371.05C160.59 369.72 160.1 369.41 159.37 369.48Z" fill="#263238"/>
<path d="M141.5 370.34L137.87 366.39L150.26 366.17L149 357.66" stroke="#263238" stroke-linecap="round" stroke-linejoin="round"/>
<path d="M144.71 384.13L136.22 382.23L146.86 376.19L144.19 373.28" stroke="#263238" stroke-linecap="round" stroke-linejoin="round"/>
<path d="M165.67 396.9L158.33 389.78L149.11 396.91L150.64 385.46L147.39 384.73" stroke="#263238" stroke-linecap="round" stroke-linejoin="round"/>
<path d="M175.85 387.81L170.32 386.65L173.24 404.24L167.47 398.65" stroke="#263238" stroke-linecap="round" stroke-linejoin="round"/>
<path d="M180.9 376.73L174.78 380.25L180.2 385.07" stroke="#263238" stroke-linecap="round" stroke-linejoin="round"/>
<path d="M167.87 357.58L180.03 347.56L173.76 370.5L179.06 373.28" stroke="#263238" stroke-linecap="round" stroke-linejoin="round"/>
<path d="M148.34 353.17L147.8 349.55L162.53 361.98L164.87 360.05" stroke="#263238" stroke-linecap="round" stroke-linejoin="round"/>
<path d="M207.88 390.08C208 388.43 207.46 387.94 206.55 387.87C205.64 387.8 205.02 388.25 204.92 389.56L204.83 390.74L202.12 390.53L202.19 389.53C202.41 386.6 204.01 385.04 206.83 385.26C209.65 385.48 210.98 387.26 210.76 390.18V390.65C210.61 392.65 209.89 393.76 208.46 394.23V394.29C209.85 395.02 210.33 396.4 210.18 398.29L210 399.7C209.78 402.63 208.19 404.19 205.37 403.97C202.55 403.75 201.21 401.97 201.44 399.05L201.55 397.53L204.27 397.74L204.14 399.44C204.04 400.74 204.58 401.28 205.49 401.35C206.4 401.42 207.01 401.02 207.14 399.35L207.25 397.92C207.38 396.22 206.85 395.55 205.54 395.45L204.54 395.37L204.74 392.76L205.86 392.85C206.93 392.93 207.62 392.51 207.73 391.04L207.88 390.08Z" fill="#263238"/>
<path d="M191.84 375.29L198.3 378.71L200.87 356.66L202.92 360.24" stroke="#263238" stroke-linecap="round" stroke-linejoin="round"/>
<path d="M187.03 399.47L188.62 396.87L179.07 387.71L190.77 384.84L181.13 369.64L188.26 373.4" stroke="#263238" stroke-linecap="round" stroke-linejoin="round"/>
<path d="M185.59 416.8L173.21 422.16L185.33 402.26" stroke="#263238" stroke-linecap="round" stroke-linejoin="round"/>
<path d="M214.17 418.27L212.48 430.88L199.13 410.93L190.94 414.48" stroke="#263238" stroke-linecap="round" stroke-linejoin="round"/>
<path d="M225.23 404.24L230.16 414.15L215.26 410.13L214.92 412.69" stroke="#263238" stroke-linecap="round" stroke-linejoin="round"/>
<path d="M223.62 375.18L227.22 373.74L221.45 386.92L237.6 395.75L222.78 399.31L223.6 400.96" stroke="#263238" stroke-linecap="round" stroke-linejoin="round"/>
<path d="M205.96 365.54L213.74 379.1L220.72 376.33" stroke="#263238" stroke-linecap="round" stroke-linejoin="round"/>
<path d="M60.69 149.44L54.29 145.89" stroke="#263238" stroke-linecap="round" stroke-linejoin="round"/>
<path d="M104.46 173.68C92 166 79 160 66.49 152.65" stroke="#263238" stroke-linecap="round" stroke-linejoin="round"/>
<path d="M89.66 175.22L66.61 168.25" stroke="#263238" stroke-linecap="round" stroke-linejoin="round"/>
<path d="M409.5 143.66L438.93 123.9L441.34 122.28" stroke="#263238" stroke-linecap="round" stroke-linejoin="round"/>
<path d="M395.26 153.23L405.36 146.44" stroke="#263238" stroke-linecap="round" stroke-linejoin="round"/>
<path d="M428.16 150.06L437.58 145.52" stroke="#263238" stroke-linecap="round" stroke-linejoin="round"/>
<path d="M405.26 161.08L423 152.54" stroke="#263238" stroke-linecap="round" stroke-linejoin="round"/>
<path d="M263.27 431.23C264.51 440.897 265.753 450.563 267 460.23" stroke="#263238" stroke-linecap="round" stroke-linejoin="round"/>
<path d="M261.3 415.89L262.54 425.58" stroke="#263238" stroke-linecap="round" stroke-linejoin="round"/>
<path d="M276.62 437.71C277.33 440.6 278.05 443.49 278.76 446.38" stroke="#263238" stroke-linecap="round" stroke-linejoin="round"/>
<path d="M273.33 424.35C273.93 426.81 274.54 429.27 275.14 431.72" stroke="#263238" stroke-linecap="round" stroke-linejoin="round"/>
<path d="M312.75 347.45C306.54 347.72 304.37 352.37 303.63 355.13C301.31 353.46 296.69 351.22 291.7 354.92C286.3 358.92 286.93 367.43 294.55 372.68C300.03 376.45 307.19 377.82 310.77 378.29C311.2 378.35 311.58 378.38 311.9 378.41C312.12 378.19 312.4 377.92 312.69 377.61C315.17 374.99 319.87 369.41 321.69 363.03C324.35 354.15 319.48 347.17 312.75 347.45Z" fill="#E392AA" stroke="#263238" stroke-linecap="round" stroke-linejoin="round"/>
<path d="M315.29 383.74L315.5 384.19" stroke="#263238" stroke-linecap="round" stroke-linejoin="round"/>
<path d="M316.4 386C319.06 391 326.46 402.4 337.48 400.38C351.48 397.8 348.58 382.56 341.11 387.63C333.64 392.7 342.37 415.87 367.92 416.23" stroke="#263238" stroke-linecap="round" stroke-linejoin="round" stroke-dasharray="1.01 2.01"/>
<path d="M368.94 416.22H369.44" stroke="#263238" stroke-linecap="round" stroke-linejoin="round"/>
<path d="M178.92 160.17C178.92 160.17 175.92 145.57 178.86 133.59C178.86 133.59 172.13 145.38 166.75 146.01C161.37 146.64 148.24 124.77 148.24 124.77C148.24 124.77 149.85 141.65 146.24 144.89C142.63 148.13 117.37 134.16 117.37 134.16C117.37 134.16 133.31 148.93 132 154.16C130.69 159.39 115.12 157 115.12 157C115.12 157 131.05 165.25 130.97 168.25C130.89 171.25 123.42 174.37 123.42 174.37L139.29 179.11C139.29 179.11 135.1 167.11 148.35 158.49C161.6 149.87 178.92 160.17 178.92 160.17Z" fill="white" stroke="#263238" stroke-linecap="round" stroke-linejoin="round"/>
<path d="M231.78 62.23L208.3 101.72L227.46 131.72L268.3 151.24L267 176.43L281.52 153.38L324.65 153.52L353.97 124.83L327.81 61.05L231.78 62.23Z" fill="white" stroke="#263238" stroke-linecap="round" stroke-linejoin="round"/>
<path d="M239.1 103.65L238.66 106.65C238.13 110.28 235.9 111.98 232.25 111.27C228.6 110.56 227.1 108.17 227.63 104.63L229.34 93.15C229.87 89.63 232.01 87.89 235.62 88.41C239.23 88.93 240.9 91.28 240.38 94.88L240.06 97.08L236.5 96.5L236.85 94.1C237.09 92.5 236.43 91.78 235.25 91.6C234.07 91.42 233.25 91.92 233.02 93.5L231.24 105.5C231 107.09 231.65 107.81 232.83 108.03C234.01 108.25 234.83 107.81 235.07 106.2L235.54 102.99L239.1 103.65Z" fill="#263238"/>
<path d="M244 113.32L240.15 112.57L243.45 89.84L247.31 90.4L245.9 100.19L250.36 100.93L251.78 91.05L255.85 91.64L252.56 115L248.49 114.21L249.92 104.21L245.46 103.43L244 113.32Z" fill="#263238"/>
<path d="M261.55 102.62L267.32 103.62L266.84 107.04L261.08 106.04L260.08 113.04L267.36 114.41L266.88 117.87L255.49 115.65L258.81 92.15L270.2 93.8L269.73 97.22L262.47 96L261.55 102.62Z" fill="#263238"/>
<path d="M275.85 105L281.96 106L281.48 109.53L275.37 108.47L274.37 115.64L282.08 117.09L281.6 120.66L269.53 118.3L272.85 94.1L285 95.87L284.53 99.39L276.81 98.21L275.85 105Z" fill="#263238"/>
<path d="M294.06 96.9C298.67 97.56 300.77 100.24 300.24 104.32L300.14 105.12L295.61 104.4L295.75 103.35C295.99 101.55 295.21 100.73 293.75 100.5C292.29 100.27 291.32 100.83 291.09 102.61C290.86 104.39 291.6 105.95 294.38 108.73C297.98 112.36 298.98 114.73 298.6 117.64C298.06 121.75 295.31 123.64 290.66 122.72C286.01 121.8 284.05 119.07 284.58 115.07L284.79 113.54L289.15 114.32L288.91 116.12C288.824 116.449 288.811 116.794 288.874 117.128C288.937 117.463 289.073 117.779 289.273 118.055C289.473 118.33 289.732 118.558 290.03 118.721C290.329 118.885 290.66 118.98 291 119C292.5 119.28 293.53 118.81 293.77 117C294.01 115.19 293.25 113.59 290.47 110.78C286.98 107.22 286.05 104.96 286.47 102.12C286.93 98.17 289.53 96.24 294.06 96.9Z" fill="#263238"/>
<path d="M307.38 110.24L314.3 111.39L313.82 115.15L306.91 113.95L305.91 121.58L314.64 123.23L314.16 127.02L300.5 124.36L303.82 98.61L317.47 100.61L317 104.36L308.31 103L307.38 110.24Z" fill="#263238"/>
<path d="M321.64 122.08L322.17 112.34L323.54 101.34L328.79 102.11L327.41 113.26L325.55 122.85L321.64 122.08ZM325.89 124.8L325.39 128.89L320.33 127.89L320.84 123.84L325.89 124.8Z" fill="#263238"/>
<path d="M213.59 120.67L220.95 132.4" stroke="#263238" stroke-linecap="round" stroke-linejoin="round"/>
<path d="M293.63 55.84L298.73 55.75" stroke="#263238" stroke-linecap="round" stroke-linejoin="round"/>
<path d="M275.19 56.19L284.96 56.01" stroke="#263238" stroke-linecap="round" stroke-linejoin="round"/>
<path d="M215.26 78.43L228.76 57.07L271.51 56.26" stroke="#263238" stroke-linecap="round" stroke-linejoin="round"/>
<path d="M355.52 113.88L357.52 119.31" stroke="#263238" stroke-linecap="round" stroke-linejoin="round"/>
<path d="M349.25 96.36L354.62 111.36" stroke="#263238" stroke-linecap="round" stroke-linejoin="round"/>
<path d="M346.91 89.84L348.31 93.75" stroke="#263238" stroke-linecap="round" stroke-linejoin="round"/>
<path d="M313.96 159.66H328.05L336.89 150.06" stroke="#263238" stroke-linecap="round" stroke-linejoin="round"/>
<path d="M300.53 159.66H305.72" stroke="#263238" stroke-linecap="round" stroke-linejoin="round"/>
<path d="M25 407.81C25 407.81 61.87 362.88 71.88 352.08C79.14 344.24 89.57 342.79 92.56 335.59C92.56 335.59 113.41 333.59 124.63 329.59C135.85 325.59 152.37 318 164 316.49C175.63 314.98 180.73 312.79 187.28 313.1C193.83 313.41 218.76 315.19 218.76 315.19C221.07 310.71 223.43 307.05 218.6 302.7C213.77 298.35 196.71 293.5 190.04 295.06C190.04 295.06 154.86 290.06 153.62 288.87C152.38 287.68 148.91 263.63 155.45 248.31L118.53 245.61C118.53 245.61 64.88 305.05 13.66 323.83C13.66 323.83 6.91 379.5 25 407.81Z" fill="white"/>
<path opacity="0.4" d="M216.52 301.22C205.52 302.3 184.01 304.47 179.04 305.35C172.32 306.54 151.56 307.73 151.56 307.73C151.56 307.73 144.23 316.82 137.9 319.2C131.57 321.58 119.85 307.73 112.65 309.9C112.65 309.9 100.19 321.84 87.92 319.9C81.12 318.82 81.48 298.78 87.25 275.99C98.1897 266.419 108.624 256.286 118.51 245.63L155.43 248.33C148.89 263.65 152.37 287.7 153.6 288.89C154.83 290.08 190 295.06 190 295.06C195.94 293.68 210.05 297.33 216.52 301.22Z" fill="#92E3A9"/>
<path opacity="0.4" d="M92.08 336.56C88.59 342.94 78.79 344.61 71.87 352.08C64.79 359.71 44.3 384.4 32.87 398.22C38.87 381.22 60.58 365.01 64.17 359.46C68.91 352.11 64.17 344.12 72.61 344.17C81.05 344.22 92 336.54 92 336.54L92.08 336.56Z" fill="#92E3A9"/>
<path d="M25 407.81C25 407.81 61.87 362.88 71.88 352.08C79.14 344.24 89.57 342.79 92.56 335.59C92.56 335.59 113.41 333.59 124.63 329.59C135.85 325.59 152.37 318 164 316.49C175.63 314.98 180.73 312.79 187.28 313.1C193.83 313.41 218.76 315.19 218.76 315.19C221.07 310.71 223.43 307.05 218.6 302.7C213.77 298.35 196.71 293.5 190.04 295.06C190.04 295.06 154.86 290.06 153.62 288.87C152.38 287.68 148.91 263.63 155.45 248.31L118.53 245.61C118.53 245.61 64.88 305.05 13.66 323.83" stroke="#263238" stroke-linecap="round" stroke-linejoin="round"/>
<path d="M130.54 222.82C130.54 222.82 164.54 194.75 166.41 194.15C168.28 193.55 176.41 191.32 184.35 189.47C192.29 187.62 198.59 186.31 204.65 189.47C210.71 192.63 224.17 195.8 224.17 195.8C224.17 195.8 225.88 202.07 219.75 204.24C213.62 206.41 195.62 204.64 195.62 204.64C195.62 204.64 183.16 210.57 175.62 211.96C175.62 211.96 159.4 229.16 159.4 236.28" fill="white"/>
<path opacity="0.4" d="M224.32 198.79C224.184 200.049 223.677 201.239 222.863 202.21C222.05 203.18 220.966 203.887 219.75 204.24C213.62 206.42 195.62 204.64 195.62 204.64C195.62 204.64 183.16 210.57 175.62 211.96C175.62 211.96 164.27 223.96 160.56 232.1L144 228.41C144 228.41 161.8 208.65 162.19 208.41C165.182 207.247 168.323 206.513 171.52 206.23C176.29 205.84 185.32 200.95 185.32 200.95C185.32 200.95 192.66 198.12 197.21 198.72C201.76 199.32 212.21 201.29 218.57 200.89C220.676 200.897 222.715 200.152 224.32 198.79Z" fill="#92E3A9"/>
<path d="M130.54 222.82C130.54 222.82 164.54 194.75 166.41 194.15C168.28 193.55 176.41 191.32 184.35 189.47C192.29 187.62 198.59 186.31 204.65 189.47C210.71 192.63 224.17 195.8 224.17 195.8C224.17 195.8 225.88 202.07 219.75 204.24C213.62 206.41 195.62 204.64 195.62 204.64C195.62 204.64 183.16 210.57 175.62 211.96C175.62 211.96 159.4 229.16 159.4 236.28" stroke="#263238" stroke-linecap="round" stroke-linejoin="round"/>
<path d="M195.62 204.64C194.793 204.586 193.989 204.343 193.269 203.931C192.55 203.518 191.935 202.947 191.47 202.26" stroke="#263238" stroke-linecap="round" stroke-linejoin="round"/>
<path d="M175.64 212C175.64 212 169.97 212.46 167.33 209.42" stroke="#263238" stroke-linecap="round" stroke-linejoin="round"/>
<path d="M470.53 421.08C470.53 421.08 435.22 372.2 426 360.76C419.28 352.45 409 350.31 406.47 342.92C406.47 342.92 385.79 339.55 374.87 334.76C363.95 329.97 347.95 321.36 336.47 319.1C324.99 316.84 320.03 314.29 313.47 314.16C306.91 314.03 281.92 314.16 281.92 314.16C279.92 309.55 277.79 305.73 282.92 301.71C288.05 297.69 305.38 293.99 311.92 295.99C311.92 295.99 347.35 293.35 348.67 292.25C349.99 291.15 355.06 267.38 349.55 251.66L386.55 251.44C386.55 251.44 437.55 316.44 487.41 338.56C487.4 338.54 490.46 394 470.53 421.08Z" fill="white"/>
<path opacity="0.4" d="M407 326.71C394.74 328.71 383.59 311.9 383.59 311.9C376.4 309.73 364.67 323.57 358.34 321.2C352.01 318.83 344.69 309.73 344.69 309.73C344.69 309.73 323.93 308.54 317.2 307.35C312.44 306.51 292.39 304.47 281.1 303.35C281.615 302.732 282.195 302.172 282.83 301.68C287.94 297.68 305.29 293.96 311.83 295.96C311.83 295.96 347.26 293.32 348.58 292.22C349.9 291.12 354.97 267.35 349.46 251.63L386.46 251.41C386.46 251.41 395.07 262.41 408.66 276.81C414.84 299.92 414 325.61 407 326.71Z" fill="#92E3A9"/>
<path opacity="0.4" d="M464.51 412.76C454 398.29 432.82 369.24 425.96 360.76C419.24 352.45 408.96 350.31 406.43 342.92C406.43 342.92 399.36 341.77 391.3 339.86C396.84 339.98 401.62 339.66 404.24 338.54C404.24 338.54 415.24 346.21 423.66 346.17C432.08 346.13 427.35 354.11 432.1 361.46C436.57 368.37 469.11 391.84 464.51 412.76Z" fill="#92E3A9"/>
<path d="M470.53 421.08C470.53 421.08 435.22 372.2 426 360.76C419.28 352.45 409 350.31 406.47 342.92C406.47 342.92 385.79 339.55 374.87 334.76C363.95 329.97 347.95 321.36 336.47 319.1C324.99 316.84 320.03 314.29 313.47 314.16C306.91 314.03 281.92 314.16 281.92 314.16C279.92 309.55 277.79 305.73 282.92 301.71C288.05 297.69 305.38 293.99 311.92 295.99C311.92 295.99 347.35 293.35 348.67 292.25C349.99 291.15 355.06 267.38 349.55 251.66L386.55 251.44C386.55 251.44 437.55 316.44 487.41 338.56" stroke="#263238" stroke-linecap="round" stroke-linejoin="round"/>
<path d="M375.72 227.82C375.72 227.82 341.72 199.75 339.85 199.15C337.98 198.55 329.85 196.32 321.92 194.47C313.99 192.62 307.68 191.31 301.61 194.47C295.54 197.63 282.09 200.8 282.09 200.8C282.09 200.8 280.38 207.07 286.51 209.24C292.64 211.41 310.64 209.64 310.64 209.64C310.64 209.64 323.11 215.57 330.64 216.96C330.64 216.96 346.86 234.16 346.86 241.28" fill="white"/>
<path opacity="0.4" d="M373.75 228.74L346.84 241.28C346.84 234.16 330.62 216.96 330.62 216.96C323.11 215.57 310.62 209.64 310.62 209.64C310.62 209.64 292.62 211.42 286.49 209.24C285.551 208.96 284.689 208.471 283.966 207.809C283.244 207.147 282.681 206.331 282.32 205.42C284.21 206.67 287.62 207.92 293.39 207.26C303.77 206.08 311.64 201.81 313.94 202.26C316.24 202.71 316.83 206.26 316.83 206.26C316.83 206.26 334.23 213.2 337.99 211.91C341.75 210.62 356.19 218.54 356.19 218.54C361.827 222.3 367.691 225.706 373.75 228.74Z" fill="#92E3A9"/>
<path d="M375.72 227.82C375.72 227.82 341.72 199.75 339.85 199.15C337.98 198.55 329.85 196.32 321.92 194.47C313.99 192.62 307.68 191.31 301.61 194.47C295.54 197.63 282.09 200.8 282.09 200.8C282.09 200.8 280.38 207.07 286.51 209.24C292.64 211.41 310.64 209.64 310.64 209.64C310.64 209.64 323.11 215.57 330.64 216.96C330.64 216.96 346.86 234.16 346.86 241.28" stroke="#263238" stroke-linecap="round" stroke-linejoin="round"/>
<path d="M310.64 209.64C311.469 209.585 312.274 209.342 312.995 208.93C313.715 208.518 314.333 207.946 314.8 207.26" stroke="#263238" stroke-linecap="round" stroke-linejoin="round"/>
<path d="M330.62 217C330.62 217 336.29 217.46 338.93 214.42" stroke="#263238" stroke-linecap="round" stroke-linejoin="round"/>
<path d="M318.3 209.54H175.69C173.613 209.54 171.93 211.223 171.93 213.3V294.78C171.93 296.857 173.613 298.54 175.69 298.54H318.3C320.377 298.54 322.06 296.857 322.06 294.78V213.3C322.06 211.223 320.377 209.54 318.3 209.54Z" fill="#92E3A9"/>
<mask id="mask0_1_296" style="mask-type:luminance" maskUnits="userSpaceOnUse" x="171" y="209" width="152" height="90">
<path d="M318.3 209.54H175.69C173.613 209.54 171.93 211.223 171.93 213.3V294.78C171.93 296.857 173.613 298.54 175.69 298.54H318.3C320.377 298.54 322.06 296.857 322.06 294.78V213.3C322.06 211.223 320.377 209.54 318.3 209.54Z" fill="white"/>
</mask>
<g mask="url(#mask0_1_296)">
<path opacity="0.3" d="M318.31 209.54H175.69C174.693 209.54 173.736 209.936 173.031 210.641C172.326 211.346 171.93 212.303 171.93 213.3V294.78C171.93 295.777 172.326 296.734 173.031 297.439C173.736 298.144 174.693 298.54 175.69 298.54H318.31C319.307 298.54 320.264 298.144 320.969 297.439C321.674 296.734 322.07 295.777 322.07 294.78V213.3C322.07 212.303 321.674 211.346 320.969 210.641C320.264 209.936 319.307 209.54 318.31 209.54ZM317.6 292.69C317.6 293.507 317.275 294.29 316.698 294.868C316.12 295.446 315.337 295.77 314.52 295.77H179.52C179.116 295.77 178.715 295.69 178.341 295.536C177.968 295.381 177.628 295.154 177.342 294.868C177.056 294.582 176.829 294.242 176.674 293.869C176.52 293.495 176.44 293.095 176.44 292.69V215.07C176.439 214.665 176.517 214.263 176.672 213.888C176.826 213.513 177.052 213.173 177.339 212.886C177.625 212.599 177.965 212.371 178.339 212.215C178.713 212.06 179.115 211.98 179.52 211.98H314.52C314.925 211.98 315.327 212.06 315.701 212.215C316.075 212.371 316.415 212.599 316.701 212.886C316.988 213.173 317.214 213.513 317.368 213.888C317.523 214.263 317.601 214.665 317.6 215.07V292.69Z" fill="black" fill-opacity="0.7"/>
<path d="M322.06 229.42H171.93V293.43H322.06V229.42Z" fill="#263238"/>
<path opacity="0.2" d="M317.61 229.42H176.4V293.43H317.61V229.42Z" fill="white"/>
<path opacity="0.3" d="M185.29 295.77L187.53 298.54H175.69C174.693 298.54 173.736 298.144 173.031 297.439C172.326 296.734 171.93 295.777 171.93 294.78V217.9C171.93 217.9 182.19 219.2 184.14 220.25C186.09 221.3 201.14 244.31 202.99 253.88C204.84 263.45 185.29 295.77 185.29 295.77Z" fill="black" fill-opacity="0.7"/>
<path opacity="0.3" d="M320.19 230.7L315.55 234.56C315.55 234.56 307.4 244 303.23 253L303.18 252.46L302.65 252.26C302.655 252.17 302.655 252.08 302.65 251.99L303.11 251.66L302.92 250.45L302.39 250.27C302.39 250.18 302.39 250.09 302.34 250L302.78 249.65L302.53 248.44L301.99 248.3C301.99 248.21 301.94 248.12 301.92 248.02L302.34 247.65L302.03 246.47L301.49 246.35C301.457 246.259 301.431 246.165 301.41 246.07L301.8 245.69L301.43 244.52L300.89 244.43C300.851 244.339 300.817 244.245 300.79 244.15L301.17 243.75L300.74 242.6L300.19 242.54L300.08 242.27L300.44 241.84L299.95 240.72H299.4L299.28 240.46L299.61 240.02L299.07 238.92H298.51L298.38 238.67L298.69 238.21L298.09 237.14H297.53L297.39 236.89L297.68 236.42L297.03 235.42L296.47 235.47L296.32 235.23L296.58 234.74L295.88 233.74L295.32 233.82L295.16 233.59L295.39 233.09L294.64 232.09L294.09 232.2C294.03 232.13 293.98 232.05 293.92 231.97L294.13 231.46L293.33 230.53L292.78 230.67L292.59 230.46L292.78 229.93L291.93 229.04L291.4 229.2L291.2 229.01L291.36 228.47L290.47 227.63L289.95 227.81L289.73 227.63L289.86 227.08L288.93 226.28L288.42 226.5L288.19 226.32L288.3 225.77L287.3 225.02L286.8 225.26L286.57 225.1L286.64 224.54L285.64 223.84L285.15 224.11L284.91 223.95L284.96 223.39L283.91 222.75L283.44 223.04L283.19 222.89V222.34L282.12 221.74L281.66 222.05L281.41 221.92V221.37L280.31 220.83L279.87 221.16L279.6 221.04V220.49L278.47 220L278.05 220.36L277.78 220.26L277.72 219.7L276.56 219.28L276.16 219.66L275.89 219.56L275.8 219.02L274.62 218.65L274.24 219.05L273.96 218.97L273.84 218.43L272.66 218.12L272.29 218.54L272.01 218.47L271.86 217.93L270.66 217.69L270.31 218.13L270 218L269.82 217.47L268.61 217.28L268.28 217.74H268L267.8 217.22L266.58 217.09L266.28 217.57H266L265.77 217.05L264.55 216.99L264.26 217.48H263.87L263.61 216.98H262.4L262.14 217.49H261.87L261.58 216.99L260.36 217.06L260.13 217.58H259.85L259.55 217.1L258.33 217.23L258.13 217.76H257.85L257.52 217.31L256.31 217.5L256.14 218.03H255.86L255.51 217.59L254.31 217.84L254.16 218.38L253.89 218.44L253.52 218.03L252.33 218.34L252.21 218.88L251.94 218.96L251.55 218.56L250.38 218.93L250.29 219.48L250.02 219.57L249.61 219.2L248.46 219.63L248.4 220.18L248.13 220.28L247.71 219.93L246.58 220.42V220.97L246.32 221.09L245.87 220.76L244.77 221.3V221.86L244.51 221.99L244.05 221.68L242.98 222.28V222.83L242.73 222.98L242.25 222.69L241.25 223.34V223.9L241.01 224.05L240.53 223.79L239.53 224.49L239.61 225.05C239.529 225.098 239.453 225.151 239.38 225.21L238.88 224.97L237.88 225.73L237.98 226.28L237.76 226.45L237.25 226.24L236.32 227.04L236.45 227.58L236.24 227.77L235.72 227.59L234.83 228.43L234.99 228.97C234.92 229.03 234.86 229.1 234.79 229.17L234.25 229.01L233.41 229.9L233.6 230.42C233.53 230.49 233.47 230.57 233.41 230.64L232.87 230.5L232.07 231.44L232.28 231.95L232.11 232.17L231.56 232.07L230.8 233.07L231.04 233.57L230.88 233.8L230.32 233.72L229.62 234.72L229.89 235.21L229.74 235.45L229.18 235.4L228.53 236.4L228.82 236.88L228.68 237.12H228.12L227.52 238.2L227.84 238.66C227.79 238.74 227.75 238.83 227.71 238.91H227.15L226.61 240.01L226.94 240.45C226.94 240.54 226.87 240.63 226.83 240.71H226.27L225.79 241.84L226.14 242.26L226.04 242.53L225.49 242.59L225.06 243.74L225.44 244.15L225.35 244.42L224.8 244.51L224.43 245.68L224.83 246.07C224.83 246.16 224.78 246.25 224.75 246.34L224.21 246.46L223.9 247.65L224.32 248.02L224.26 248.3L223.72 248.44L223.47 249.65L223.91 249.99C223.91 250.09 223.91 250.18 223.86 250.27L223.33 250.44L223.14 251.66L223.6 251.99V252.26L223.07 252.46L222.95 253.69L223.42 253.99C223.42 254.08 223.42 254.17 223.42 254.27L222.91 254.49L222.84 255.72L223.34 256C223.34 256.09 223.34 256.19 223.34 256.28L222.83 256.53V257.76L223.34 258.02C223.34 258.15 223.34 258.28 223.34 258.41L222.85 258.69L222.91 259.92L223.43 260.15C223.435 260.24 223.435 260.33 223.43 260.42L222.96 260.73L223.09 261.95L223.61 262.15C223.61 262.24 223.61 262.33 223.61 262.43L223.15 262.75L223.34 263.97L223.87 264.14C223.892 264.232 223.908 264.326 223.92 264.42L223.48 264.77L223.74 265.97L224.27 266.11C224.298 266.202 224.321 266.296 224.34 266.39L223.92 266.76L224.23 267.95L224.78 268.06C224.78 268.15 224.83 268.25 224.85 268.34L224.46 268.73L224.83 269.9L225.38 269.99L225.47 270.26L225.09 270.66L225.52 271.82L226.07 271.88L226.18 272.14L225.82 272.57L226.31 273.7H226.87L226.98 273.96L226.65 274.4L227.19 275.5H227.75L227.88 275.75L227.57 276.21L228.17 277.29H228.73L228.87 277.54L228.58 278.01L229.23 279.01L229.79 278.96L229.94 279.2L229.68 279.69L230.39 280.69L230.94 280.61C230.999 280.683 231.052 280.76 231.1 280.84L230.87 281.34L231.62 282.34L232.17 282.23L232.35 282.46L232.13 282.97L232.94 283.9L233.48 283.76C233.538 283.838 233.601 283.911 233.67 283.98L233.48 284.5L234.33 285.39L234.86 285.23L235.06 285.43L234.9 285.96L235.79 286.81L236.32 286.62L236.53 286.81L236.4 287.35L237.33 288.15L237.84 287.94L238.07 288.11L237.96 288.66L238.96 289.41L239.46 289.17L239.7 289.34L239.62 289.89L240.62 290.59L241.1 290.33L241.34 290.48L241.29 291.04L242.34 291.69L242.81 291.4L243.06 291.54V292.1L244.13 292.69L244.59 292.38L244.84 292.51V293.07L245.94 293.61L246.39 293.27L246.65 293.39V293.95L247.78 294.43L248.2 294.07L248.47 294.18L248.53 294.73L249.69 295.16L250.09 294.78L250.36 294.87L250.45 295.42L251.63 295.78L252.01 295.39L252.29 295.46L252.41 296.01L253.6 296.31L253.96 295.9L254.24 295.96L254.39 296.5L255.59 296.74L255.94 296.31H256.21L256.39 296.85L257.6 297.03L257.93 296.57H258.21L258.41 297.1L259.63 297.22L259.93 296.74H260.21L260.44 297.26L261.67 297.32L261.95 296.83H262.34L262.6 297.34H263.82L264.08 296.83H264.35L264.64 297.32L265.86 297.25L266.09 296.73H266.37L266.67 297.21L267.89 297.08L268.09 296.55H268.37L268.7 297.01L270 297L270.17 296.46L270.45 296.41L270.8 296.85L272 296.6L272.15 296.06L272.42 296L272.79 296.42L273.98 296.11L274.1 295.56L274.37 295.48L274.76 295.88L275.93 295.51L276 295L276.27 294.91L276.68 295.29L277.83 294.86L277.89 294.3L278.16 294.2L278.58 294.55L279.71 294.07V293.51L279.97 293.39L280.42 293.73L281.52 293.18V292.63L281.78 292.5L282.24 292.81L283.31 292.21V291.65L283.55 291.51L284.03 291.79L285.03 291.14L284.98 290.59L285.22 290.43L285.71 290.7L286.71 289.99L286.63 289.44L286.86 289.27L287.37 289.51L288.37 288.76L288.26 288.21L288.48 288.03L288.99 288.24L289.92 287.44L289.79 286.9L290 286.71L290.53 286.9L291.33 286.12L294.33 287.6L297.71 283.69L295.71 280.76H295.9L296.6 279.76L296.33 279.27L296.48 279.03L297.04 279.08L297.69 278.08L297.4 277.61L297.54 277.36H298.1L298.7 276.29L298.38 275.83C298.43 275.74 298.47 275.66 298.51 275.57H299.07L299.61 274.46L299.28 274.02C299.28 273.93 299.36 273.85 299.39 273.76H299.95L300.43 272.63L300.08 272.2C300.08 272.11 300.15 272.02 300.18 271.94L300.73 271.87L301.16 270.72L300.78 270.32L300.87 270.04L301.42 269.95L301.58 269.44C303.72 281.1 309.58 296.02 309.58 296.02L309.19 298.1L309.67 298.59H318.3C319.297 298.59 320.254 298.194 320.959 297.489C321.664 296.784 322.06 295.827 322.06 294.83V230.94L320.19 230.7Z" fill="black" fill-opacity="0.7"/>
</g>
<path d="M318.3 209.54H175.69C173.613 209.54 171.93 211.223 171.93 213.3V294.78C171.93 296.857 173.613 298.54 175.69 298.54H318.3C320.377 298.54 322.06 296.857 322.06 294.78V213.3C322.06 211.223 320.377 209.54 318.3 209.54Z" stroke="#263238" stroke-linecap="round" stroke-linejoin="round"/>
<path d="M203 205.78V209.54H180.34V205.78C180.34 205.491 180.455 205.214 180.659 205.009C180.864 204.805 181.141 204.69 181.43 204.69H201.9C202.044 204.689 202.187 204.716 202.32 204.77C202.454 204.824 202.575 204.904 202.677 205.006C202.779 205.107 202.861 205.228 202.916 205.361C202.971 205.493 203 205.636 203 205.78Z" fill="#999999"/>
<mask id="mask1_1_296" style="mask-type:luminance" maskUnits="userSpaceOnUse" x="180" y="204" width="23" height="6">
<path d="M203 205.78V209.54H180.34V205.78C180.34 205.491 180.455 205.214 180.659 205.009C180.864 204.805 181.141 204.69 181.43 204.69H201.9C202.044 204.689 202.187 204.716 202.32 204.77C202.454 204.824 202.575 204.904 202.677 205.006C202.779 205.107 202.861 205.228 202.916 205.361C202.971 205.493 203 205.636 203 205.78Z" fill="white"/>
</mask>
<g mask="url(#mask1_1_296)">
<path opacity="0.4" d="M203 205.78V206.27H180.34V205.78C180.34 205.491 180.455 205.214 180.659 205.009C180.864 204.805 181.141 204.69 181.43 204.69H201.9C202.044 204.689 202.187 204.716 202.32 204.77C202.454 204.824 202.575 204.904 202.677 205.006C202.779 205.107 202.861 205.228 202.916 205.361C202.971 205.493 203 205.636 203 205.78Z" fill="white"/>
</g>
<path d="M203 205.78V209.54H180.34V205.78C180.34 205.491 180.455 205.214 180.659 205.009C180.864 204.805 181.141 204.69 181.43 204.69H201.9C202.044 204.689 202.187 204.716 202.32 204.77C202.454 204.824 202.575 204.904 202.677 205.006C202.779 205.107 202.861 205.228 202.916 205.361C202.971 205.493 203 205.636 203 205.78Z" stroke="#263238" stroke-linecap="round" stroke-linejoin="round"/>
<path d="M224.32 207.27V209.54H206.2V207.27L209.57 206.27V204.92C209.57 204.655 209.675 204.4 209.863 204.213C210.05 204.025 210.305 203.92 210.57 203.92H219.91C220.175 203.92 220.43 204.025 220.617 204.213C220.805 204.4 220.91 204.655 220.91 204.92V206.27L224.32 207.27Z" fill="#999999"/>
<mask id="mask2_1_296" style="mask-type:luminance" maskUnits="userSpaceOnUse" x="206" y="203" width="19" height="7">
<path d="M224.32 207.27V209.54H206.2V207.27L209.57 206.27V204.92C209.57 204.655 209.675 204.4 209.863 204.213C210.05 204.025 210.305 203.92 210.57 203.92H219.91C220.175 203.92 220.43 204.025 220.617 204.213C220.805 204.4 220.91 204.655 220.91 204.92V206.27L224.32 207.27Z" fill="white"/>
</mask>
<g mask="url(#mask2_1_296)">
<path opacity="0.4" d="M224.32 207.81V207.27L220.95 206.27H209.57L206.2 207.27V207.81H224.32Z" fill="white"/>
<path opacity="0.4" d="M221 204.92V205.09H209.57V204.92C209.57 204.655 209.675 204.401 209.863 204.213C210.05 204.025 210.305 203.92 210.57 203.92H219.91C220.049 203.908 220.188 203.924 220.32 203.969C220.452 204.013 220.573 204.085 220.676 204.179C220.779 204.273 220.86 204.388 220.916 204.515C220.972 204.643 221.001 204.781 221 204.92Z" fill="white"/>
</g>
<path d="M224.32 207.27V209.54H206.2V207.27L209.57 206.27V204.92C209.57 204.655 209.675 204.4 209.863 204.213C210.05 204.025 210.305 203.92 210.57 203.92H219.91C220.175 203.92 220.43 204.025 220.617 204.213C220.805 204.4 220.91 204.655 220.91 204.92V206.27L224.32 207.27Z" stroke="#263238" stroke-linecap="round" stroke-linejoin="round"/>
<path d="M209.57 206.27H220.95" stroke="#263238" stroke-linecap="round" stroke-linejoin="round"/>
<path d="M298.91 254.4V256.23L299.56 255.9V254.74L298.91 254.4Z" fill="#263238"/>
<path d="M223.46 254.4L222.8 254.74V255.9L223.46 256.23V254.4Z" fill="#263238"/>
<path d="M298.81 258.14L299.48 257.84L299.54 256.68L298.9 256.31L298.81 258.14Z" fill="#263238"/>
<path d="M223.55 252.5L222.88 252.79L222.82 253.96L223.46 254.33L223.55 252.5Z" fill="#263238"/>
<path d="M298.62 260.04L299.31 259.78L299.43 258.61L298.81 258.22L298.62 260.04Z" fill="#263238"/>
<path d="M223.75 250.6L223.06 250.86L222.94 252.03L223.56 252.42L223.75 250.6Z" fill="#263238"/>
<path d="M298.33 261.93L299.03 261.7L299.21 260.54L298.61 260.12L298.33 261.93Z" fill="#263238"/>
<path d="M224.03 248.71L223.33 248.94L223.16 250.1L223.75 250.52L224.03 248.71Z" fill="#263238"/>
<path d="M297.95 263.8L298.66 263.6L298.9 262.46L298.32 262L297.95 263.8Z" fill="#263238"/>
<path d="M224.41 246.84L223.7 247.03L223.47 248.18L224.04 248.64L224.41 246.84Z" fill="#263238"/>
<path d="M297.48 265.64L298.2 265.49L298.49 264.36L297.94 263.87L297.48 265.64Z" fill="#263238"/>
<path d="M224.89 245L224.17 245.15L223.88 246.28L224.43 246.77L224.89 245Z" fill="#263238"/>
<path d="M296.91 267.46L297.63 267.35L297.98 266.23L297.46 265.72L296.91 267.46Z" fill="#263238"/>
<path d="M225.46 243.17L224.73 243.29L224.38 244.41L224.91 244.92L225.46 243.17Z" fill="#263238"/>
<path d="M296.25 269.25L296.98 269.17L297.38 268.08L296.88 267.54L296.25 269.25Z" fill="#263238"/>
<path d="M226.12 241.38L225.39 241.47L224.98 242.56L225.48 243.1L226.12 241.38Z" fill="#263238"/>
<path d="M295.5 271.01L296.23 270.96L296.69 269.89L296.22 269.33L295.5 271.01Z" fill="#263238"/>
<path d="M226.87 239.63L226.13 239.67L225.67 240.75L226.15 241.31L226.87 239.63Z" fill="#263238"/>
<path d="M294.66 272.73L295.4 272.72L295.91 271.67L295.47 271.08L294.66 272.73Z" fill="#263238"/>
<path d="M227.7 237.91L226.97 237.92L226.45 238.97L226.9 239.56L227.7 237.91Z" fill="#263238"/>
<path d="M293.74 274.39L294.48 274.42L295.04 273.4L294.63 272.79L293.74 274.39Z" fill="#263238"/>
<path d="M228.63 236.24L227.89 236.21L227.32 237.24L227.74 237.84L228.63 236.24Z" fill="#263238"/>
<path d="M292.73 276.02L293.47 276.08L294.08 275.09L293.7 274.46L292.73 276.02Z" fill="#263238"/>
<path d="M229.63 234.62L228.9 234.56L228.28 235.55L228.66 236.18L229.63 234.62Z" fill="#263238"/>
<path d="M291.65 277.58L292.38 277.69L293.04 276.73L292.69 276.08L291.65 277.58Z" fill="#263238"/>
<path d="M230.72 233.05L229.99 232.95L229.32 233.91L229.67 234.56L230.72 233.05Z" fill="#263238"/>
<path d="M290.48 279.1L291.2 279.24L291.92 278.31L291.6 277.65L290.48 279.1Z" fill="#263238"/>
<path d="M231.88 231.54L231.16 231.4L230.45 232.33L230.76 232.99L231.88 231.54Z" fill="#263238"/>
<path d="M289.24 280.55L289.96 280.72L290.72 279.83L290.43 279.16L289.24 280.55Z" fill="#263238"/>
<path d="M233.12 230.09L232.41 229.91L231.65 230.8L231.93 231.48L233.12 230.09Z" fill="#263238"/>
<path d="M287.93 281.93L288.64 282.15L289.44 281.3L289.19 280.61L287.93 281.93Z" fill="#263238"/>
<path d="M234.43 228.7L233.73 228.49L232.93 229.34L233.17 230.03L234.43 228.7Z" fill="#263238"/>
<path d="M286.55 283.25L287.25 283.5L288.09 282.69L287.88 281.99L286.55 283.25Z" fill="#263238"/>
<path d="M235.81 227.39L235.12 227.14L234.28 227.95L234.49 228.65L235.81 227.39Z" fill="#263238"/>
<path d="M285.11 284.5L285.79 284.78L286.67 284.02L286.5 283.3L285.11 284.5Z" fill="#263238"/>
<path d="M237.26 226.14L236.58 225.86L235.69 226.62L235.87 227.33L237.26 226.14Z" fill="#263238"/>
<path d="M283.6 285.67L284.27 285.99L285.19 285.27L285.05 284.55L283.6 285.67Z" fill="#263238"/>
<path d="M238.76 224.97L238.1 224.65L237.18 225.37L237.32 226.09L238.76 224.97Z" fill="#263238"/>
<path d="M282.04 286.76L282.69 287.11L283.64 286.44L283.54 285.72L282.04 286.76Z" fill="#263238"/>
<path d="M240.33 223.87L239.68 223.52L238.72 224.19L238.83 224.92L240.33 223.87Z" fill="#263238"/>
<path d="M280.42 287.78L281.05 288.16L282.04 287.54L281.98 286.81L280.42 287.78Z" fill="#263238"/>
<path d="M241.94 222.86L241.31 222.48L240.32 223.1L240.39 223.83L241.94 222.86Z" fill="#263238"/>
<path d="M278.76 288.71L279.37 289.12L280.39 288.55L280.36 287.82L278.76 288.71Z" fill="#263238"/>
<path d="M243.61 221.93L243 221.51L241.98 222.08L242.01 222.82L243.61 221.93Z" fill="#263238"/>
<path d="M277.63 290L278.68 289.48L278.69 288.75L277.05 289.56L277.63 290Z" fill="#263238"/>
<path d="M244.73 220.64L243.68 221.16V221.89L245.32 221.08L244.73 220.64Z" fill="#263238"/>
<path d="M275.86 290.79L276.93 290.32L276.98 289.59L275.3 290.31L275.86 290.79Z" fill="#263238"/>
<path d="M246.51 219.85L245.43 220.31L245.39 221.05L247.07 220.32L246.51 219.85Z" fill="#263238"/>
<path d="M274.05 291.48L275.14 291.07L275.22 290.34L273.51 290.98L274.05 291.48Z" fill="#263238"/>
<path d="M248.32 219.16L247.22 219.56L247.14 220.29L248.86 219.66L248.32 219.16Z" fill="#263238"/>
<path d="M272.2 292.09L273.32 291.74L273.44 291.01L271.69 291.56L272.2 292.09Z" fill="#263238"/>
<path d="M250.16 218.55L249.05 218.9L248.93 219.63L250.68 219.08L250.16 218.55Z" fill="#263238"/>
<path d="M270.33 292.6L271.46 292.3L271.62 291.58L269.84 292.05L270.33 292.6Z" fill="#263238"/>
<path d="M252.03 218.04L250.91 218.34L250.75 219.06L252.52 218.59L252.03 218.04Z" fill="#263238"/>
<path d="M268.43 293.01L269.58 292.77L269.77 292.06L267.98 292.44L268.43 293.01Z" fill="#263238"/>
<path d="M253.93 217.63L252.79 217.86L252.6 218.57L254.39 218.2L253.93 217.63Z" fill="#263238"/>
<path d="M266.52 293.33L267.68 293.15L267.9 292.45L266.09 292.73L266.52 293.33Z" fill="#263238"/>
<path d="M255.85 217.31L254.69 217.49L254.47 218.19L256.27 217.91L255.85 217.31Z" fill="#263238"/>
<path d="M264.59 293.55L265.75 293.43L266.01 292.74L264.19 292.93L264.59 293.55Z" fill="#263238"/>
<path d="M257.77 217.09L256.61 217.21L256.35 217.9L258.17 217.71L257.77 217.09Z" fill="#263238"/>
<path d="M262.65 293.68L263.82 293.61L264.12 292.94L262.29 293.04L262.65 293.68Z" fill="#263238"/>
<path d="M259.71 216.96L258.55 217.03L258.25 217.7L260.08 217.6L259.71 216.96Z" fill="#263238"/>
<path d="M260.71 293.7H261.88L262.21 293.04L260.38 293.05L260.71 293.7Z" fill="#263238"/>
<path d="M261.65 216.94H260.48L260.15 217.6L261.99 217.59L261.65 216.94Z" fill="#263238"/>
<path d="M263.71 217.02L262.54 216.96L262.18 217.6L264 217.69L263.71 217.02Z" fill="#263238"/>
<path d="M258.66 293.62L259.83 293.68L260.19 293.04L258.36 292.95L258.66 293.62Z" fill="#263238"/>
<path d="M265.64 217.19L264.48 217.08L264.08 217.7L265.9 217.88L265.64 217.19Z" fill="#263238"/>
<path d="M256.73 293.44L257.89 293.56L258.28 292.94L256.46 292.76L256.73 293.44Z" fill="#263238"/>
<path d="M267.56 217.47L266.41 217.29L265.98 217.89L267.79 218.17L267.56 217.47Z" fill="#263238"/>
<path d="M254.8 293.17L255.96 293.35L256.39 292.75L254.58 292.47L254.8 293.17Z" fill="#263238"/>
<path d="M269.47 217.84L268.32 217.6L267.87 218.18L269.66 218.55L269.47 217.84Z" fill="#263238"/>
<path d="M252.9 292.8L254.04 293.03L254.5 292.46L252.71 292.09L252.9 292.8Z" fill="#263238"/>
<path d="M271.35 218.31L270.22 218.01L269.74 218.57L271.51 219.03L271.35 218.31Z" fill="#263238"/>
<path d="M251.01 292.33L252.15 292.63L252.63 292.07L250.86 291.61L251.01 292.33Z" fill="#263238"/>
<path d="M273.21 218.87L272.09 218.52L271.58 219.05L273.33 219.59L273.21 218.87Z" fill="#263238"/>
<path d="M249.16 291.77L250.27 292.12L250.78 291.59L249.04 291.05L249.16 291.77Z" fill="#263238"/>
<path d="M275.04 219.52L273.94 219.12L273.4 219.62L275.12 220.25L275.04 219.52Z" fill="#263238"/>
<path d="M247.33 291.12L248.43 291.52L248.96 291.02L247.25 290.39L247.33 291.12Z" fill="#263238"/>
<path d="M276.83 220.27L275.75 219.81L275.19 220.28L276.87 221L276.83 220.27Z" fill="#263238"/>
<path d="M245.54 290.37L246.61 290.83L247.18 290.36L245.49 289.64L245.54 290.37Z" fill="#263238"/>
<path d="M278.58 221.1L277.53 220.59L276.94 221.03L278.59 221.84L278.58 221.1Z" fill="#263238"/>
<path d="M243.79 289.53L244.84 290.05L245.42 289.6L243.78 288.8L243.79 289.53Z" fill="#263238"/>
<path d="M280.29 222.03L279.26 221.46L278.66 221.88L280.26 222.76L280.29 222.03Z" fill="#263238"/>
<path d="M242.08 288.61L243.1 289.18L243.71 288.76L242.11 287.88L242.08 288.61Z" fill="#263238"/>
<path d="M281.95 223.03L280.95 222.42L280.33 222.8L281.88 223.77L281.95 223.03Z" fill="#263238"/>
<path d="M240.42 287.6L241.41 288.22L242.04 287.84L240.49 286.87L240.42 287.6Z" fill="#263238"/>
<path d="M283.45 224.85L283.55 224.13L282.59 223.46L281.94 223.81L283.45 224.85Z" fill="#263238"/>
<path d="M238.92 285.78L238.81 286.51L239.77 287.18L240.42 286.83L238.92 285.78Z" fill="#263238"/>
<path d="M284.96 226.02L285.1 225.3L284.18 224.58L283.51 224.9L284.96 226.02Z" fill="#263238"/>
<path d="M237.41 284.62L237.27 285.34L238.19 286.06L238.85 285.74L237.41 284.62Z" fill="#263238"/>
<path d="M286.41 227.26L286.59 226.54L285.7 225.78L285.02 226.07L286.41 227.26Z" fill="#263238"/>
<path d="M235.96 283.38L235.78 284.09L236.67 284.85L237.34 284.57L235.96 283.38Z" fill="#263238"/>
<path d="M287.8 228.57L288.01 227.87L287.16 227.06L286.47 227.31L287.8 228.57Z" fill="#263238"/>
<path d="M234.57 282.07L234.36 282.77L235.21 283.58L235.9 283.33L234.57 282.07Z" fill="#263238"/>
<path d="M289.12 229.95L289.36 229.26L288.56 228.41L287.85 228.63L289.12 229.95Z" fill="#263238"/>
<path d="M233.25 280.69L233 281.38L233.81 282.23L234.51 282.01L233.25 280.69Z" fill="#263238"/>
<path d="M290.36 231.39L290.64 230.72L289.88 229.83L289.17 230.01L290.36 231.39Z" fill="#263238"/>
<path d="M232 279.24L231.72 279.92L232.48 280.81L233.2 280.63L232 279.24Z" fill="#263238"/>
<path d="M291.54 232.9L291.85 232.24L291.13 231.31L290.41 231.45L291.54 232.9Z" fill="#263238"/>
<path d="M230.83 277.74L230.51 278.4L231.23 279.33L231.95 279.18L230.83 277.74Z" fill="#263238"/>
<path d="M292.63 234.46L292.98 233.81L292.31 232.86L291.58 232.96L292.63 234.46Z" fill="#263238"/>
<path d="M229.74 276.18L229.39 276.82L230.06 277.78L230.78 277.68L229.74 276.18Z" fill="#263238"/>
<path d="M293.64 236.08L294.02 235.45L293.4 234.46L292.67 234.53L293.64 236.08Z" fill="#263238"/>
<path d="M228.72 274.56L228.34 275.19L228.96 276.18L229.69 276.11L228.72 274.56Z" fill="#263238"/>
<path d="M294.57 237.75L294.99 237.14L294.42 236.12L293.68 236.15L294.57 237.75Z" fill="#263238"/>
<path d="M227.79 272.89L227.38 273.5L227.95 274.52L228.68 274.49L227.79 272.89Z" fill="#263238"/>
<path d="M295.42 239.46L295.86 238.87L295.35 237.82L294.61 237.81L295.42 239.46Z" fill="#263238"/>
<path d="M226.94 271.18L226.5 271.77L227.02 272.82H227.75L226.94 271.18Z" fill="#263238"/>
<path d="M296.18 241.21L296.65 240.64L296.19 239.57L295.45 239.53L296.18 241.21Z" fill="#263238"/>
<path d="M226.19 269.43L225.72 270L226.18 271.07L226.91 271.11L226.19 269.43Z" fill="#263238"/>
<path d="M296.85 242.99L297.35 242.45L296.94 241.36L296.21 241.28L296.85 242.99Z" fill="#263238"/>
<path d="M225.52 267.64L225.02 268.18L225.43 269.28L226.16 269.36L225.52 267.64Z" fill="#263238"/>
<path d="M297.43 244.81L297.95 244.3L297.6 243.18L296.87 243.07L297.43 244.81Z" fill="#263238"/>
<path d="M224.94 265.83L224.41 266.34L224.77 267.45L225.49 267.57L224.94 265.83Z" fill="#263238"/>
<path d="M297.91 246.66L298.46 246.17L298.17 245.04L297.45 244.89L297.91 246.66Z" fill="#263238"/>
<path d="M224.46 263.98L223.91 264.47L224.2 265.6L224.92 265.75L224.46 263.98Z" fill="#263238"/>
<path d="M298.3 248.53L298.88 248.07L298.64 246.92L297.93 246.73L298.3 248.53Z" fill="#263238"/>
<path d="M224.06 262.11L223.49 262.57L223.73 263.71L224.44 263.9L224.06 262.11Z" fill="#263238"/>
<path d="M298.6 250.41L299.19 249.98L299.01 248.83L298.31 248.6L298.6 250.41Z" fill="#263238"/>
<path d="M223.77 260.23L223.17 260.66L223.35 261.81L224.05 262.04L223.77 260.23Z" fill="#263238"/>
<path d="M298.8 252.31L299.42 251.91L299.29 250.75L298.61 250.49L298.8 252.31Z" fill="#263238"/>
<path d="M223.57 258.33L222.95 258.73L223.07 259.89L223.76 260.15L223.57 258.33Z" fill="#263238"/>
<path d="M298.9 254.21L299.54 253.85L299.48 252.68L298.8 252.39L298.9 254.21Z" fill="#263238"/>
<path d="M223.47 256.43L222.83 256.79L222.89 257.96L223.56 258.25L223.47 256.43Z" fill="#263238"/>
<path d="M297.625 264.288C302.584 244.157 290.286 223.818 270.155 218.858C250.024 213.899 229.684 226.197 224.725 246.328C219.765 266.459 232.064 286.799 252.195 291.758C272.326 296.718 292.665 284.419 297.625 264.288Z" fill="#999999" stroke="#263238" stroke-linecap="round" stroke-linejoin="round"/>
<path d="M295.976 263.882C300.714 244.663 288.976 225.243 269.758 220.504C250.539 215.766 231.119 227.505 226.38 246.723C221.642 265.941 233.38 285.362 252.599 290.1C271.817 294.839 291.238 283.1 295.976 263.882Z" fill="#BFBFBF" stroke="#263238" stroke-linecap="round" stroke-linejoin="round"/>
<path opacity="0.3" d="M291.083 260.348C293.852 243.839 282.713 228.211 266.204 225.442C249.695 222.674 234.067 233.813 231.298 250.322C228.53 266.831 239.669 282.459 256.178 285.227C272.687 287.996 288.315 276.857 291.083 260.348Z" fill="black" fill-opacity="0.7"/>
<path d="M288.723 262.383C292.62 247.173 283.448 231.684 268.238 227.787C253.028 223.89 237.539 233.061 233.642 248.272C229.745 263.482 238.916 278.971 254.126 282.868C269.337 286.765 284.826 277.594 288.723 262.383Z" fill="#BFBFBF" stroke="#263238" stroke-linecap="round" stroke-linejoin="round"/>
<path d="M282.493 260.61C285.415 248.839 278.241 236.929 266.47 234.007C254.7 231.085 242.789 238.259 239.867 250.03C236.945 261.801 244.119 273.712 255.89 276.633C267.661 279.555 279.572 272.381 282.493 260.61Z" fill="#757575" stroke="#263238" stroke-linecap="round" stroke-linejoin="round"/>
<path d="M294.11 280.44L290.9 284.17L287.75 282.64L292.13 277.56L294.11 280.44Z" fill="#BFBFBF" stroke="#263238" stroke-linecap="round" stroke-linejoin="round"/>
<g opacity="0.3">
<path d="M248.23 231.57L248.5 232.03L248.91 234.93L249.91 234.36L250.18 234.82L248.69 235.7L248.42 235.25L248.01 232.35L247.09 232.89L246.82 232.43L248.23 231.57Z" fill="black"/>
<path d="M249.1 232.13C248.997 231.914 248.983 231.665 249.063 231.439C249.143 231.213 249.309 231.028 249.525 230.925C249.741 230.822 249.99 230.808 250.216 230.888C250.442 230.968 250.627 231.134 250.73 231.35L251.58 233.12C251.631 233.227 251.661 233.343 251.667 233.462C251.674 233.58 251.657 233.699 251.617 233.811C251.578 233.922 251.516 234.025 251.437 234.114C251.358 234.202 251.262 234.274 251.155 234.325C251.048 234.376 250.932 234.406 250.813 234.412C250.695 234.419 250.576 234.402 250.464 234.362C250.353 234.323 250.25 234.261 250.161 234.182C250.073 234.103 250.001 234.007 249.95 233.9L249.1 232.13ZM250.51 233.68C250.62 233.92 250.77 233.96 250.94 233.88C251.11 233.8 251.18 233.65 251.06 233.41L250.18 231.57C250.06 231.33 249.91 231.29 249.74 231.37C249.57 231.45 249.51 231.6 249.62 231.84L250.51 233.68Z" fill="black"/>
<path d="M251.21 231.15C251.157 231.038 251.128 230.915 251.125 230.791C251.122 230.667 251.144 230.543 251.191 230.428C251.238 230.313 251.308 230.209 251.397 230.122C251.486 230.036 251.592 229.969 251.709 229.925C251.825 229.881 251.949 229.862 252.073 229.869C252.197 229.876 252.319 229.908 252.43 229.964C252.541 230.02 252.639 230.098 252.718 230.194C252.797 230.289 252.856 230.401 252.89 230.52L253.58 232.36C253.621 232.471 253.64 232.589 253.636 232.707C253.632 232.826 253.604 232.942 253.555 233.05C253.506 233.158 253.436 233.254 253.349 233.335C253.263 233.416 253.161 233.479 253.05 233.52C252.939 233.561 252.821 233.58 252.703 233.576C252.584 233.572 252.468 233.544 252.36 233.495C252.253 233.446 252.156 233.376 252.075 233.289C251.994 233.203 251.931 233.101 251.89 232.99L251.21 231.15ZM252.46 232.82C252.56 233.07 252.71 233.12 252.88 233.06C253.05 233 253.13 232.85 253.04 232.6L252.32 230.69C252.23 230.44 252.08 230.39 251.91 230.45C251.74 230.51 251.66 230.66 251.75 230.91L252.46 232.82Z" fill="black"/>
<path d="M255.07 231.74L254.78 229.04L255.58 228.84L256.58 232.49L256.04 232.63L255.36 230.01L255.65 232.73L255.11 232.87L254 230.4L254.67 232.99L254.17 233.12L253.22 229.46L254.02 229.25L255.07 231.74Z" fill="black"/>
<path d="M257.21 228.56L257.8 228.49L258.19 231.71L259.19 231.59L259.25 232.13L257.69 232.31L257.21 228.56Z" fill="black"/>
<path d="M259.9 229.91H260.71V230.44H259.89L259.94 231.54H260.94V232.08L259.33 232.14L259.17 228.38L260.79 228.31V228.85H259.79L259.9 229.91Z" fill="black"/>
<path d="M262 229.34L261.87 232.07H261.34L261.51 228.31H262.25L262.75 230.59L262.85 228.34H263.38L263.2 232.11H262.6L262 229.34Z" fill="black"/>
<path d="M264.84 228.5C264.963 228.507 265.083 228.542 265.191 228.602C265.299 228.662 265.392 228.745 265.464 228.846C265.535 228.947 265.582 229.063 265.602 229.185C265.622 229.307 265.615 229.432 265.58 229.55V229.67L265.02 229.6V229.44C265.02 229.17 264.96 229.06 264.77 229.03C264.58 229 264.46 229.09 264.43 229.36C264.4 229.63 264.48 229.85 264.82 230.24C264.997 230.396 265.133 230.591 265.218 230.81C265.304 231.03 265.335 231.266 265.31 231.5C265.308 231.626 265.28 231.751 265.227 231.865C265.173 231.979 265.096 232.081 265.001 232.163C264.905 232.246 264.793 232.307 264.672 232.342C264.551 232.378 264.424 232.388 264.299 232.371C264.174 232.354 264.054 232.31 263.947 232.243C263.84 232.176 263.749 232.087 263.679 231.982C263.609 231.877 263.563 231.758 263.542 231.634C263.521 231.509 263.528 231.382 263.56 231.26V231.03L264.11 231.11V231.37C264.11 231.64 264.17 231.75 264.36 231.78C264.55 231.81 264.68 231.72 264.72 231.46C264.76 231.2 264.66 230.96 264.32 230.58C264.145 230.424 264.009 230.228 263.926 230.009C263.842 229.789 263.813 229.553 263.84 229.32C263.93 228.72 264.27 228.42 264.84 228.5Z" fill="black"/>
<path d="M267.82 233.07C267.694 233.048 267.575 232.997 267.472 232.922C267.369 232.847 267.284 232.749 267.225 232.636C267.165 232.523 267.132 232.399 267.127 232.271C267.123 232.143 267.148 232.017 267.2 231.9L267.28 231.62C267.308 231.469 267.377 231.329 267.479 231.214C267.581 231.099 267.713 231.015 267.86 230.97C267.761 230.861 267.695 230.726 267.67 230.581C267.645 230.435 267.662 230.286 267.72 230.15V230.03C267.749 229.907 267.804 229.791 267.879 229.69C267.955 229.589 268.05 229.504 268.16 229.441C268.269 229.378 268.39 229.338 268.516 229.323C268.642 229.308 268.769 229.319 268.89 229.355C269.011 229.391 269.124 229.452 269.221 229.533C269.318 229.614 269.397 229.714 269.454 229.826C269.511 229.939 269.545 230.062 269.553 230.188C269.561 230.315 269.543 230.441 269.5 230.56V230.67C269.476 230.816 269.411 230.953 269.311 231.063C269.212 231.173 269.083 231.252 268.94 231.29C269.039 231.407 269.104 231.55 269.127 231.702C269.15 231.853 269.13 232.009 269.07 232.15L268.99 232.43C268.968 232.557 268.919 232.677 268.844 232.781C268.77 232.885 268.673 232.972 268.56 233.033C268.447 233.095 268.322 233.13 268.194 233.137C268.066 233.143 267.938 233.12 267.82 233.07ZM267.97 232.56C268.15 232.61 268.31 232.56 268.41 232.25L268.51 231.91C268.6 231.63 268.51 231.47 268.31 231.41C268.11 231.35 267.96 231.41 267.87 231.72L267.77 232.06C267.68 232.38 267.79 232.5 268 232.56H267.97ZM268.26 230.41C268.17 230.7 268.26 230.84 268.47 230.89C268.68 230.94 268.82 230.89 268.9 230.6L268.96 230.4C269.06 230.08 268.96 229.95 268.76 229.89C268.56 229.83 268.42 229.89 268.32 230.21L268.26 230.41Z" fill="black"/>
<path d="M269.72 233.07L269.52 233.61L268.99 233.41L269.19 232.87L269.72 233.07Z" fill="black"/>
<path d="M270.63 234.11C270.51 234.07 270.4 234.003 270.309 233.915C270.218 233.826 270.148 233.719 270.104 233.6C270.06 233.481 270.043 233.354 270.054 233.227C270.066 233.101 270.105 232.979 270.17 232.87L270.29 232.6C270.337 232.455 270.422 232.325 270.536 232.225C270.651 232.125 270.79 232.057 270.94 232.03C270.857 231.905 270.813 231.759 270.813 231.61C270.813 231.461 270.857 231.315 270.94 231.19L270.99 231.08C271.032 230.958 271.1 230.847 271.188 230.752C271.276 230.658 271.382 230.583 271.501 230.532C271.619 230.481 271.747 230.456 271.876 230.457C272.005 230.458 272.132 230.486 272.249 230.538C272.367 230.591 272.472 230.668 272.559 230.764C272.645 230.859 272.71 230.972 272.751 231.095C272.791 231.217 272.806 231.346 272.794 231.475C272.782 231.603 272.743 231.727 272.68 231.84L272.63 231.95C272.586 232.092 272.502 232.218 272.389 232.313C272.275 232.409 272.137 232.47 271.99 232.49C272.07 232.619 272.112 232.768 272.112 232.92C272.112 233.072 272.07 233.221 271.99 233.35L271.87 233.62C271.833 233.743 271.769 233.856 271.682 233.95C271.595 234.044 271.488 234.118 271.369 234.165C271.249 234.212 271.121 234.232 270.993 234.222C270.865 234.213 270.741 234.174 270.63 234.11ZM270.85 233.62C271.02 233.7 271.19 233.62 271.33 233.37L271.47 233.05C271.59 232.77 271.53 232.6 271.34 232.52C271.15 232.44 270.98 232.52 270.86 232.77L270.72 233.1C270.58 233.4 270.68 233.54 270.85 233.62ZM271.41 231.53C271.29 231.8 271.41 231.95 271.56 232.03C271.71 232.11 271.9 232.03 272.03 231.8L272.11 231.61C272.25 231.29 272.11 231.15 271.98 231.08C271.85 231.01 271.64 231.02 271.5 231.33L271.41 231.53Z" fill="black"/>
<path d="M273.49 233.07L274.42 233.62L274.15 234.08L273.22 233.54L273.49 233.07Z" fill="black"/>
<path d="M276.9 234.47C277.1 234.2 277.06 234.06 276.9 233.94C276.74 233.82 276.59 233.84 276.43 234.06L276.29 234.26L275.84 233.92L275.96 233.76C276.017 233.649 276.099 233.553 276.199 233.479C276.298 233.404 276.414 233.353 276.536 233.33C276.659 233.307 276.785 233.312 276.905 233.345C277.025 233.378 277.136 233.438 277.23 233.52C277.336 233.586 277.426 233.675 277.493 233.78C277.559 233.886 277.602 234.005 277.616 234.129C277.63 234.253 277.617 234.378 277.576 234.496C277.535 234.614 277.468 234.722 277.38 234.81L277.32 234.89C277.244 235.027 277.127 235.137 276.985 235.204C276.843 235.27 276.684 235.29 276.53 235.26C276.602 235.403 276.628 235.565 276.602 235.723C276.577 235.881 276.503 236.027 276.39 236.14L276.22 236.38C276.161 236.49 276.078 236.586 275.976 236.659C275.875 236.732 275.759 236.782 275.636 236.804C275.512 236.826 275.386 236.82 275.266 236.787C275.145 236.753 275.034 236.693 274.94 236.61C274.834 236.545 274.745 236.457 274.678 236.353C274.611 236.248 274.569 236.13 274.554 236.006C274.54 235.883 274.554 235.758 274.594 235.641C274.635 235.524 274.702 235.418 274.79 235.33L274.98 235.08L275.43 235.41L275.22 235.69C275.06 235.91 275.1 236.06 275.22 236.17C275.34 236.28 275.52 236.28 275.72 236.01L275.9 235.77C276.1 235.49 276.08 235.32 275.9 235.16L275.74 235.04L276.06 234.6L276.24 234.74C276.42 234.87 276.59 234.87 276.77 234.63L276.9 234.47Z" fill="black"/>
<path d="M277.78 235.16C277.847 235.049 277.939 234.956 278.048 234.886C278.158 234.817 278.282 234.774 278.41 234.76C278.539 234.747 278.669 234.763 278.791 234.808C278.912 234.853 279.021 234.926 279.11 235.02C279.208 235.098 279.287 235.197 279.341 235.309C279.396 235.422 279.424 235.545 279.424 235.67C279.424 235.795 279.396 235.918 279.341 236.031C279.287 236.143 279.208 236.242 279.11 236.32L279.05 236.39L278.63 236.02L278.72 235.92C278.9 235.72 278.88 235.56 278.72 235.44C278.56 235.32 278.4 235.3 278.16 235.57L277.71 236.08C277.812 236.03 277.927 236.013 278.038 236.033C278.15 236.053 278.252 236.108 278.33 236.19C278.65 236.48 278.62 236.86 278.25 237.27L277.79 237.79C277.711 237.879 277.616 237.951 277.509 238.003C277.402 238.054 277.286 238.085 277.168 238.092C277.05 238.099 276.931 238.082 276.819 238.043C276.707 238.004 276.604 237.944 276.515 237.865C276.426 237.786 276.354 237.691 276.302 237.584C276.251 237.477 276.22 237.361 276.213 237.243C276.206 237.125 276.223 237.006 276.262 236.894C276.301 236.782 276.361 236.679 276.44 236.59L277.78 235.16ZM277.37 236.52L276.92 237.03C276.74 237.23 276.77 237.38 276.92 237.51C277.07 237.64 277.21 237.64 277.39 237.44L277.84 236.93C278.02 236.72 278 236.57 277.84 236.44C277.68 236.31 277.55 236.32 277.37 236.52Z" fill="black"/>
<path d="M278.28 238.72L277.87 239.12L277.47 238.71L277.88 238.31L278.28 238.72Z" fill="black"/>
<path d="M278.66 240C278.568 239.912 278.497 239.805 278.452 239.686C278.406 239.568 278.388 239.44 278.399 239.314C278.409 239.187 278.448 239.064 278.512 238.955C278.577 238.845 278.665 238.751 278.77 238.68L278.99 238.49C279.092 238.376 279.223 238.293 279.37 238.25C279.517 238.208 279.673 238.208 279.82 238.25C279.796 238.104 279.814 237.953 279.873 237.817C279.931 237.681 280.027 237.564 280.15 237.48L280.23 237.4C280.316 237.306 280.423 237.233 280.541 237.185C280.659 237.138 280.787 237.117 280.914 237.124C281.041 237.132 281.165 237.168 281.277 237.229C281.389 237.291 281.485 237.377 281.56 237.48C281.652 237.568 281.723 237.675 281.769 237.794C281.814 237.912 281.832 238.04 281.821 238.166C281.811 238.293 281.772 238.416 281.708 238.525C281.643 238.635 281.555 238.729 281.45 238.8L281.36 238.88C281.259 238.988 281.129 239.066 280.986 239.105C280.843 239.144 280.692 239.142 280.55 239.1C280.571 239.251 280.549 239.405 280.487 239.545C280.426 239.684 280.326 239.804 280.2 239.89L279.98 240.09C279.893 240.181 279.787 240.253 279.669 240.298C279.551 240.344 279.425 240.363 279.299 240.355C279.173 240.346 279.05 240.31 278.94 240.249C278.829 240.187 278.734 240.102 278.66 240ZM279.07 239.65C279.19 239.79 279.35 239.84 279.61 239.65L279.87 239.42C280.09 239.23 280.11 239.05 279.97 238.89C279.83 238.73 279.66 238.72 279.43 238.89L279.17 239.12C278.92 239.38 278.94 239.55 279.07 239.69V239.65ZM280.46 237.99C280.23 238.19 280.25 238.36 280.38 238.51C280.51 238.66 280.67 238.69 280.9 238.51L281.06 238.38C281.31 238.15 281.29 237.98 281.16 237.84C281.03 237.7 280.87 237.65 280.62 237.84L280.46 237.99Z" fill="black"/>
<path d="M281.08 241.28L283.48 240.02L283.97 240.69L280.92 242.91L280.59 242.46L282.77 240.86L280.35 242.12L280.02 241.67L281.92 239.75L279.77 241.33L279.46 240.91L282.51 238.69L283 239.35L281.08 241.28Z" fill="black"/>
<path d="M282.64 243.81L285.19 242.89L285.59 243.61L282.26 245.4L281.99 244.91L284.38 243.63L281.81 244.56L281.54 244.06L283.69 242.42L281.33 243.68L281.09 243.23L284.42 241.44L284.81 242.16L282.64 243.81Z" fill="black"/>
<path d="M285.92 245.62C285.954 245.766 286.042 245.894 286.166 245.977C286.29 246.061 286.442 246.094 286.59 246.07L286.73 246.44L283.18 247.76L282.98 247.2L285.68 246.2L285.52 245.77L285.92 245.62Z" fill="black"/>
<path d="M284.09 248.76L283.55 248.92L283.38 248.38L283.93 248.21L284.09 248.76ZM286.09 248.17L285.54 248.34L285.38 247.79L285.93 247.63L286.09 248.17Z" fill="black"/>
<path d="M287 248.92C287.015 249.069 287.087 249.207 287.2 249.306C287.313 249.404 287.46 249.456 287.61 249.45L287.7 249.84L284.02 250.68L283.89 250.1L286.7 249.46L286.59 249.02L287 248.92Z" fill="black"/>
<path d="M284.75 251.77L284.19 251.87L284.1 251.3L284.66 251.21L284.75 251.77Z" fill="black"/>
<path d="M284.29 253.09C284.266 252.965 284.27 252.837 284.302 252.714C284.335 252.592 284.395 252.478 284.478 252.382C284.56 252.285 284.664 252.209 284.78 252.159C284.897 252.108 285.023 252.085 285.15 252.09H285.44C285.589 252.056 285.744 252.065 285.887 252.117C286.031 252.168 286.157 252.26 286.25 252.38C286.313 252.246 286.414 252.133 286.54 252.055C286.666 251.977 286.812 251.937 286.96 251.94H287.08C287.204 251.923 287.33 251.932 287.45 251.965C287.571 251.998 287.684 252.055 287.782 252.133C287.88 252.21 287.961 252.307 288.021 252.417C288.081 252.526 288.118 252.647 288.13 252.772C288.142 252.896 288.129 253.022 288.091 253.141C288.054 253.26 287.993 253.371 287.911 253.466C287.83 253.561 287.731 253.638 287.619 253.694C287.507 253.75 287.385 253.783 287.26 253.79H287.14C286.993 253.819 286.842 253.806 286.702 253.753C286.563 253.7 286.441 253.609 286.35 253.49C286.279 253.624 286.172 253.736 286.041 253.813C285.911 253.891 285.762 253.931 285.61 253.93H285.31C285.186 253.955 285.058 253.953 284.935 253.922C284.812 253.891 284.697 253.834 284.6 253.753C284.502 253.673 284.423 253.571 284.37 253.457C284.316 253.342 284.289 253.217 284.29 253.09ZM284.83 253.04C284.83 253.23 284.95 253.36 285.28 253.33H285.63C285.93 253.33 286.04 253.16 286.02 252.95C286 252.74 285.86 252.63 285.57 252.66H285.22C284.89 252.7 284.81 252.85 284.83 253V253.04ZM286.93 252.5C286.62 252.5 286.54 252.68 286.56 252.87C286.58 253.06 286.69 253.2 286.99 253.17H287.2C287.54 253.17 287.61 252.98 287.6 252.8C287.59 252.62 287.47 252.47 287.13 252.5H286.93Z" fill="black"/>
<path d="M286.6 255.09V256.17H286V255.1L286.6 255.09Z" fill="black"/>
<path d="M287.52 258.52C287.52 258.33 287.46 258.2 287.19 258.17L286.79 258.12L286.86 257.56H287.22C287.344 257.563 287.465 257.592 287.577 257.645C287.689 257.698 287.789 257.774 287.87 257.868C287.95 257.961 288.011 258.071 288.047 258.189C288.083 258.308 288.095 258.432 288.08 258.555C288.065 258.678 288.025 258.796 287.962 258.903C287.899 259.009 287.814 259.102 287.714 259.174C287.613 259.246 287.498 259.296 287.377 259.321C287.256 259.346 287.131 259.346 287.01 259.32C286.727 259.274 286.457 259.17 286.217 259.015C285.976 258.861 285.769 258.658 285.61 258.42C285.28 258.02 285.12 257.91 284.92 257.88H284.84L284.7 259L284.17 258.94L284.37 257.23L284.83 257.29C285.059 257.325 285.278 257.409 285.473 257.535C285.667 257.66 285.833 257.826 285.96 258.02C286.081 258.212 286.242 258.376 286.432 258.5C286.621 258.624 286.836 258.706 287.06 258.74C287.4 258.81 287.5 258.7 287.52 258.52Z" fill="black"/>
<path d="M284.55 260L283.99 259.89L284.09 259.33L284.65 259.44L284.55 260Z" fill="black"/>
<path d="M283.67 261.08C283.69 260.954 283.738 260.835 283.81 260.73C283.882 260.624 283.976 260.537 284.086 260.473C284.196 260.409 284.319 260.37 284.446 260.359C284.573 260.348 284.701 260.365 284.82 260.41L285.1 260.49C285.252 260.511 285.394 260.574 285.513 260.671C285.631 260.768 285.72 260.896 285.77 261.04C285.876 260.936 286.009 260.864 286.155 260.834C286.3 260.804 286.451 260.816 286.59 260.87H286.71C286.947 260.931 287.151 261.084 287.275 261.295C287.4 261.506 287.436 261.758 287.375 261.995C287.314 262.232 287.161 262.436 286.95 262.561C286.739 262.685 286.487 262.721 286.25 262.66H286.13C285.984 262.634 285.847 262.569 285.735 262.472C285.622 262.376 285.538 262.251 285.49 262.11C285.38 262.214 285.243 262.285 285.094 262.315C284.946 262.345 284.792 262.333 284.65 262.28L284.36 262.2C284.234 262.185 284.114 262.142 284.007 262.074C283.901 262.006 283.811 261.914 283.745 261.807C283.678 261.699 283.637 261.578 283.624 261.452C283.611 261.326 283.627 261.199 283.67 261.08ZM284.19 261.21C284.14 261.4 284.19 261.55 284.52 261.64L284.86 261.73C285.15 261.8 285.3 261.73 285.36 261.51C285.42 261.29 285.31 261.15 285.03 261.08L284.69 260.99C284.36 260.91 284.24 261 284.19 261.21ZM286.35 261.42C286.05 261.34 285.93 261.42 285.88 261.64C285.83 261.86 285.88 261.99 286.18 262.06L286.38 262.12C286.71 262.2 286.84 262.12 286.89 261.9C286.94 261.68 286.89 261.55 286.55 261.47L286.35 261.42Z" fill="black"/>
<path d="M266.47 280.21L265.67 280.37L265.56 279.84L266.36 279.68L266.14 278.6L265.14 278.8L265.03 278.27L266.61 277.95L267.37 281.65L265.79 281.97L265.68 281.44L266.68 281.24L266.47 280.21Z" fill="black"/>
<path d="M264.54 281.09L264.23 278.38L264.76 278.32L265.19 282.07L264.45 282.15L263.6 279.97L263.85 282.22L263.33 282.28L262.9 278.53L263.5 278.46L264.54 281.09Z" fill="black"/>
<path d="M261.86 282.38C261.28 282.38 260.98 282.06 260.96 281.46V281.34H261.52V281.5C261.52 281.77 261.64 281.87 261.83 281.87C262.02 281.87 262.12 281.76 262.12 281.49C262.12 281.22 261.99 281.01 261.59 280.68C261.391 280.557 261.225 280.386 261.106 280.184C260.988 279.982 260.92 279.754 260.91 279.52C260.881 279.395 260.883 279.265 260.914 279.14C260.944 279.016 261.004 278.9 261.088 278.803C261.171 278.706 261.277 278.63 261.395 278.58C261.514 278.531 261.642 278.511 261.77 278.52C262.35 278.52 262.66 278.84 262.68 279.44V279.67H262.12V279.4C262.12 279.13 261.99 279.03 261.8 279.04C261.61 279.05 261.49 279.14 261.5 279.41C261.51 279.68 261.63 279.89 262.03 280.22C262.227 280.345 262.392 280.516 262.51 280.718C262.629 280.919 262.697 281.147 262.71 281.38C262.72 282 262.43 282.37 261.86 282.38Z" fill="black"/>
<path d="M258.19 278.33C258.318 278.335 258.443 278.368 258.556 278.428C258.669 278.487 258.767 278.572 258.843 278.675C258.919 278.777 258.971 278.896 258.994 279.022C259.018 279.147 259.013 279.277 258.98 279.4V279.69C258.978 279.843 258.933 279.993 258.85 280.122C258.766 280.251 258.649 280.355 258.51 280.42C258.626 280.511 258.713 280.635 258.76 280.776C258.806 280.916 258.809 281.067 258.77 281.21V281.33C258.762 281.457 258.728 281.582 258.671 281.695C258.613 281.809 258.532 281.909 258.434 281.991C258.335 282.072 258.221 282.132 258.099 282.167C257.976 282.202 257.848 282.212 257.721 282.196C257.595 282.179 257.473 282.137 257.364 282.071C257.254 282.006 257.16 281.918 257.085 281.815C257.011 281.711 256.959 281.593 256.932 281.469C256.906 281.344 256.905 281.215 256.93 281.09V280.97C256.93 280.821 256.973 280.675 257.055 280.551C257.137 280.426 257.253 280.329 257.39 280.27C257.273 280.172 257.186 280.043 257.14 279.898C257.094 279.753 257.091 279.597 257.13 279.45V279.15C257.131 279.021 257.161 278.893 257.218 278.778C257.275 278.662 257.358 278.56 257.46 278.481C257.562 278.402 257.681 278.348 257.807 278.321C257.934 278.295 258.065 278.298 258.19 278.33ZM258.19 281.03C258.19 280.73 258.1 280.62 257.91 280.6C257.72 280.58 257.57 280.6 257.53 280.95V281.15C257.53 281.49 257.62 281.6 257.81 281.63C258 281.66 258.15 281.58 258.19 281.24V281.03ZM258.14 278.87C257.95 278.87 257.8 278.92 257.75 279.25V279.59C257.75 279.89 257.81 280.03 258.02 280.06C258.23 280.09 258.37 279.98 258.41 279.68V279.33C258.44 279 258.31 278.89 258.12 278.87H258.14Z" fill="black"/>
<path d="M256.31 278.64L256.42 278.08L256.98 278.19L256.87 278.75L256.31 278.64Z" fill="black"/>
<path d="M255.25 277.76C255.376 277.78 255.495 277.827 255.6 277.899C255.705 277.972 255.792 278.066 255.856 278.177C255.919 278.287 255.957 278.41 255.966 278.537C255.976 278.664 255.956 278.792 255.91 278.91L255.83 279.2C255.811 279.351 255.749 279.493 255.651 279.61C255.554 279.727 255.425 279.814 255.28 279.86C255.38 279.97 255.449 280.106 255.477 280.252C255.505 280.399 255.492 280.55 255.44 280.69V280.8C255.378 281.039 255.223 281.243 255.01 281.368C254.797 281.492 254.544 281.527 254.305 281.465C254.066 281.403 253.862 281.248 253.737 281.035C253.613 280.822 253.578 280.569 253.64 280.33V280.22C253.663 280.073 253.727 279.935 253.824 279.822C253.921 279.709 254.048 279.625 254.19 279.58C254.089 279.466 254.022 279.326 253.996 279.176C253.969 279.026 253.985 278.872 254.04 278.73L254.11 278.44C254.129 278.315 254.176 278.195 254.247 278.09C254.317 277.984 254.411 277.896 254.52 277.831C254.629 277.766 254.751 277.726 254.877 277.714C255.003 277.701 255.131 277.717 255.25 277.76ZM254.89 280.44C254.97 280.15 254.89 280.01 254.67 279.97C254.45 279.93 254.32 279.97 254.25 280.27L254.19 280.47C254.11 280.8 254.19 280.92 254.41 280.97C254.63 281.02 254.75 280.97 254.84 280.64L254.89 280.44ZM255.11 278.28C254.93 278.28 254.77 278.28 254.68 278.61L254.59 278.95C254.52 279.23 254.59 279.39 254.81 279.44C255.03 279.49 255.16 279.44 255.24 279.12L255.33 278.78C255.41 278.46 255.3 278.33 255.11 278.28Z" fill="black"/>
<path d="M252.55 279.22L251.55 278.84L251.74 278.33L252.74 278.72L252.55 279.22Z" fill="black"/>
<path d="M249 278.38C248.84 278.68 248.91 278.82 249.07 278.91C249.23 279 249.39 278.91 249.52 278.72L249.63 278.5L250.13 278.76L250.03 278.94C249.992 279.059 249.926 279.168 249.839 279.258C249.752 279.348 249.646 279.417 249.528 279.459C249.41 279.502 249.284 279.517 249.16 279.503C249.035 279.489 248.916 279.447 248.81 279.38C248.695 279.331 248.593 279.258 248.51 279.164C248.428 279.07 248.368 278.959 248.334 278.839C248.3 278.719 248.294 278.593 248.316 278.47C248.338 278.347 248.387 278.231 248.46 278.13L248.51 278.04C248.69 277.68 248.92 277.52 249.23 277.55C249.139 277.419 249.091 277.264 249.091 277.105C249.091 276.946 249.139 276.791 249.23 276.66L249.37 276.39C249.416 276.275 249.486 276.17 249.576 276.084C249.665 275.997 249.771 275.93 249.888 275.887C250.004 275.844 250.129 275.826 250.253 275.834C250.377 275.842 250.498 275.875 250.608 275.933C250.718 275.991 250.815 276.071 250.892 276.168C250.97 276.265 251.026 276.378 251.057 276.498C251.088 276.618 251.094 276.744 251.074 276.866C251.054 276.989 251.008 277.106 250.94 277.21L250.8 277.48L250.3 277.23L250.46 276.92C250.58 276.68 250.53 276.53 250.36 276.44C250.19 276.35 250.04 276.38 249.89 276.68L249.75 276.94C249.59 277.26 249.64 277.43 249.88 277.55L250.06 277.64L249.81 278.12L249.6 278.01C249.41 277.91 249.24 277.94 249.1 278.21L249 278.38Z" fill="black"/>
<path d="M248 277.86C247.946 277.974 247.869 278.075 247.773 278.157C247.677 278.239 247.566 278.3 247.445 278.336C247.324 278.372 247.197 278.383 247.072 278.367C246.947 278.351 246.827 278.308 246.72 278.243C246.612 278.178 246.519 278.09 246.447 277.987C246.376 277.883 246.326 277.766 246.303 277.642C246.279 277.518 246.282 277.391 246.311 277.268C246.34 277.146 246.394 277.03 246.47 276.93L246.53 276.85L247 277.15L246.93 277.26C246.78 277.49 246.83 277.64 246.99 277.74C247.15 277.84 247.32 277.83 247.51 277.52L247.88 276.95C247.788 277.016 247.678 277.051 247.565 277.051C247.452 277.051 247.342 277.016 247.25 276.95C246.88 276.72 246.86 276.34 247.15 275.87L247.52 275.29C247.586 275.19 247.67 275.104 247.769 275.037C247.868 274.97 247.979 274.923 248.096 274.899C248.213 274.875 248.334 274.874 248.451 274.896C248.568 274.919 248.68 274.964 248.78 275.03C248.88 275.096 248.966 275.18 249.033 275.279C249.1 275.378 249.147 275.489 249.171 275.606C249.195 275.723 249.196 275.844 249.174 275.961C249.151 276.078 249.106 276.19 249.04 276.29L248 277.86ZM248.19 276.45L248.55 275.88C248.7 275.65 248.65 275.5 248.49 275.4C248.33 275.3 248.18 275.32 248.03 275.55L247.67 276.12C247.53 276.35 247.57 276.5 247.73 276.6C247.89 276.7 248.05 276.68 248.19 276.45Z" fill="black"/>
<path d="M246.93 274.42L247.27 273.96L247.73 274.3L247.4 274.76L246.93 274.42Z" fill="black"/>
<path d="M246.34 273.17C246.445 273.242 246.534 273.337 246.598 273.448C246.662 273.558 246.701 273.681 246.711 273.809C246.722 273.936 246.704 274.064 246.659 274.184C246.614 274.304 246.542 274.411 246.45 274.5L246.26 274.72C246.177 274.848 246.06 274.951 245.923 275.016C245.785 275.081 245.632 275.107 245.48 275.09C245.528 275.23 245.535 275.381 245.499 275.524C245.464 275.668 245.388 275.798 245.28 275.9L245.2 275.99C245.126 276.096 245.031 276.185 244.921 276.252C244.811 276.319 244.688 276.363 244.56 276.38C244.432 276.397 244.302 276.387 244.178 276.351C244.054 276.315 243.939 276.254 243.84 276.171C243.741 276.088 243.66 275.985 243.603 275.87C243.546 275.754 243.514 275.628 243.508 275.499C243.502 275.37 243.524 275.241 243.571 275.121C243.617 275 243.689 274.891 243.78 274.8L243.85 274.71C243.935 274.588 244.052 274.492 244.187 274.432C244.323 274.372 244.473 274.351 244.62 274.37C244.573 274.226 244.567 274.071 244.605 273.925C244.642 273.778 244.72 273.644 244.83 273.54L245.02 273.31C245.089 273.203 245.181 273.112 245.289 273.045C245.398 272.978 245.52 272.936 245.646 272.923C245.773 272.909 245.901 272.925 246.021 272.967C246.141 273.01 246.25 273.079 246.34 273.17ZM244.89 275.44C245.08 275.21 245.03 275.05 244.89 274.92C244.75 274.79 244.57 274.79 244.38 275.02L244.25 275.18C244.03 275.44 244.08 275.6 244.25 275.72C244.42 275.84 244.56 275.87 244.78 275.61L244.89 275.44ZM246 273.59C245.85 273.47 245.69 273.45 245.47 273.7L245.25 273.97C245.06 274.2 245.07 274.38 245.25 274.51C245.43 274.64 245.59 274.63 245.78 274.4L246 274.13C246.2 273.87 246.14 273.71 246 273.59Z" fill="black"/>
<path d="M243.75 272.32L241.55 273.9L240.97 273.31L243.68 270.68L244.07 271.08L242.12 273L244.34 271.4L244.73 271.8L243.12 273.97L245.04 272.1L245.4 272.48L242.69 275.11L242.12 274.52L243.75 272.32Z" fill="black"/>
<path d="M241.83 270.1L239.46 271.41L238.96 270.76L241.96 268.47L242.29 268.91L240.15 270.55L242.54 269.23L242.88 269.67L241.03 271.67L243.15 270.05L243.47 270.47L240.47 272.76L239.97 272.1L241.83 270.1Z" fill="black"/>
<path d="M238.31 268.82C238.252 268.681 238.143 268.569 238.006 268.508C237.868 268.447 237.712 268.44 237.57 268.49L237.38 268.14L240.66 266.28L240.95 266.79L238.45 268.21L238.67 268.61L238.31 268.82Z" fill="black"/>
<path d="M237.75 266.33L238.27 266.08L238.52 266.59L238 266.84L237.75 266.33ZM239.6 265.43L240.12 265.18L240.37 265.7L239.85 265.95L239.6 265.43Z" fill="black"/>
<path d="M236.75 265.74C236.712 265.596 236.62 265.472 236.494 265.394C236.367 265.316 236.216 265.289 236.07 265.32L235.92 264.95L239.41 263.53L239.63 264.08L237 265.16L237.17 265.58L236.75 265.74Z" fill="black"/>
<path d="M238.47 262.54L239.01 262.36L239.19 262.9L238.65 263.08L238.47 262.54Z" fill="black"/>
<path d="M238.72 261.19C238.763 261.31 238.778 261.437 238.766 261.564C238.753 261.69 238.712 261.812 238.645 261.92C238.579 262.029 238.49 262.121 238.383 262.19C238.277 262.259 238.156 262.304 238.03 262.32L237.75 262.4C237.607 262.454 237.452 262.468 237.303 262.439C237.153 262.411 237.013 262.342 236.9 262.24C236.855 262.382 236.772 262.509 236.658 262.606C236.545 262.703 236.407 262.767 236.26 262.79H236.14C236.02 262.827 235.893 262.839 235.768 262.826C235.643 262.812 235.522 262.774 235.412 262.712C235.302 262.651 235.206 262.567 235.129 262.468C235.052 262.368 234.997 262.253 234.966 262.131C234.934 262.009 234.928 261.882 234.948 261.758C234.967 261.634 235.012 261.514 235.078 261.408C235.145 261.301 235.233 261.209 235.336 261.137C235.44 261.065 235.557 261.015 235.68 260.99H235.79C235.93 260.937 236.083 260.924 236.23 260.954C236.377 260.984 236.512 261.056 236.62 261.16C236.667 261.016 236.754 260.888 236.871 260.79C236.988 260.693 237.129 260.631 237.28 260.61L237.57 260.54C237.688 260.494 237.814 260.474 237.941 260.483C238.067 260.492 238.19 260.528 238.3 260.591C238.41 260.653 238.505 260.739 238.578 260.843C238.65 260.947 238.699 261.065 238.72 261.19ZM236.21 262.19C236.5 262.12 236.56 261.96 236.51 261.77C236.46 261.58 236.33 261.47 236.04 261.55H235.84C235.51 261.63 235.46 261.8 235.5 261.98C235.54 262.16 235.68 262.28 236.01 262.2L236.21 262.19ZM238.21 261.33C238.21 261.15 238.04 261.04 237.71 261.11L237.37 261.2C237.08 261.28 236.99 261.43 237.04 261.63C237.09 261.83 237.25 261.93 237.54 261.85L237.88 261.76C238.19 261.67 238.25 261.5 238.2 261.32L238.21 261.33Z" fill="black"/>
<path d="M236.12 259.58L235.96 258.52L236.5 258.44L236.65 259.51L236.12 259.58Z" fill="black"/>
<path d="M234.66 256.33C234.66 256.52 234.78 256.63 235.05 256.62H235.45V257.18H235.08C234.956 257.208 234.827 257.207 234.703 257.177C234.579 257.146 234.464 257.088 234.367 257.005C234.27 256.923 234.194 256.819 234.144 256.702C234.094 256.584 234.072 256.457 234.08 256.33C234.08 255.75 234.39 255.44 235 255.41C235.287 255.412 235.57 255.473 235.831 255.59C236.093 255.707 236.328 255.878 236.52 256.09C236.91 256.42 237.09 256.52 237.29 256.51H237.37V255.39H237.91L237.97 257.1H237.51C237.279 257.102 237.05 257.054 236.84 256.959C236.629 256.864 236.442 256.724 236.29 256.55C236.138 256.38 235.951 256.245 235.743 256.153C235.534 256.062 235.308 256.016 235.08 256.02C234.74 256 234.65 256.14 234.66 256.33Z" fill="black"/>
<path d="M237.37 254.42H237.94V255H237.36L237.37 254.42Z" fill="black"/>
<path d="M238.07 253.22C238.071 253.345 238.044 253.468 237.991 253.581C237.939 253.694 237.862 253.794 237.767 253.874C237.671 253.954 237.559 254.013 237.439 254.045C237.319 254.077 237.193 254.082 237.07 254.06H236.77C236.617 254.066 236.466 254.028 236.335 253.95C236.203 253.872 236.098 253.757 236.03 253.62C235.941 253.741 235.819 253.833 235.679 253.886C235.539 253.939 235.387 253.951 235.24 253.92H235.12C234.994 253.915 234.871 253.884 234.757 253.829C234.644 253.775 234.542 253.698 234.46 253.603C234.377 253.508 234.314 253.397 234.275 253.277C234.236 253.158 234.222 253.031 234.234 252.906C234.245 252.78 234.282 252.659 234.342 252.548C234.402 252.437 234.484 252.34 234.583 252.262C234.682 252.183 234.795 252.126 234.917 252.093C235.038 252.06 235.165 252.052 235.29 252.07H235.41C235.559 252.068 235.706 252.108 235.834 252.186C235.961 252.264 236.064 252.376 236.13 252.51C236.224 252.39 236.349 252.298 236.492 252.245C236.635 252.192 236.79 252.18 236.94 252.21H237.24C237.364 252.212 237.486 252.242 237.598 252.296C237.71 252.35 237.809 252.428 237.888 252.524C237.967 252.62 238.024 252.732 238.055 252.852C238.087 252.972 238.092 253.098 238.07 253.22ZM235.37 253.31C235.67 253.31 235.78 253.21 235.8 253.01C235.82 252.81 235.73 252.67 235.43 252.64H235.22C234.88 252.64 234.78 252.75 234.76 252.94C234.74 253.13 234.82 253.28 235.16 253.31H235.37ZM237.53 253.17C237.53 252.99 237.47 252.84 237.14 252.8H236.79C236.49 252.8 236.35 252.88 236.33 253.09C236.31 253.3 236.43 253.44 236.73 253.46H237.08C237.41 253.5 237.51 253.36 237.53 253.17Z" fill="black"/>
</g>
<path d="M279.78 247.83V262.83C279.78 264.722 279.029 266.536 277.692 267.875C276.355 269.214 274.542 269.967 272.65 269.97H249.71C247.82 269.965 246.009 269.21 244.674 267.872C243.339 266.533 242.59 264.72 242.59 262.83V247.83C242.59 245.942 243.338 244.13 244.671 242.792C246.003 241.454 247.812 240.698 249.7 240.69H272.7C274.583 240.706 276.384 241.465 277.71 242.802C279.036 244.14 279.78 245.947 279.78 247.83Z" fill="#757575" stroke="#263238" stroke-linecap="round" stroke-linejoin="round"/>
<path opacity="0.3" d="M279.78 247.83V262.83C279.78 264.722 279.029 266.536 277.692 267.875C276.355 269.214 274.542 269.967 272.65 269.97H249.71C247.82 269.965 246.009 269.21 244.674 267.872C243.339 266.533 242.59 264.72 242.59 262.83V247.83C242.59 245.942 243.338 244.13 244.671 242.792C246.003 241.454 247.812 240.698 249.7 240.69H272.7C274.583 240.706 276.384 241.465 277.71 242.802C279.036 244.14 279.78 245.947 279.78 247.83Z" fill="black" fill-opacity="0.7"/>
<path opacity="0.3" d="M269.06 240.69H264.63C267.949 241.441 270.914 243.298 273.038 245.957C275.162 248.615 276.319 251.917 276.319 255.32C276.319 258.723 275.162 262.025 273.038 264.683C270.914 267.342 267.949 269.199 264.63 269.95H269C271.643 268.529 273.852 266.418 275.392 263.842C276.932 261.266 277.745 258.321 277.745 255.32C277.745 252.319 276.932 249.374 275.392 246.798C273.852 244.222 271.643 242.111 269 240.69H269.06ZM257.73 240.69H253.31C250.667 242.111 248.458 244.222 246.918 246.798C245.378 249.374 244.565 252.319 244.565 255.32C244.565 258.321 245.378 261.266 246.918 263.842C248.458 266.418 250.667 268.529 253.31 269.95H257.71C254.391 269.199 251.426 267.342 249.302 264.683C247.178 262.025 246.021 258.723 246.021 255.32C246.021 251.917 247.178 248.615 249.302 245.957C251.426 243.298 254.391 241.441 257.71 240.69H257.73Z" fill="black" fill-opacity="0.7"/>
<path opacity="0.3" d="M261.18 242.14C258.573 242.14 256.025 242.913 253.858 244.361C251.69 245.809 250.001 247.868 249.003 250.276C248.006 252.685 247.745 255.335 248.253 257.891C248.762 260.448 250.017 262.796 251.86 264.64C253.704 266.483 256.052 267.738 258.609 268.247C261.165 268.755 263.815 268.494 266.224 267.497C268.632 266.499 270.691 264.81 272.139 262.642C273.587 260.475 274.36 257.927 274.36 255.32C274.36 251.824 272.971 248.472 270.5 246C268.028 243.529 264.676 242.14 261.18 242.14ZM261.18 265.99C259.067 265.99 257.002 265.363 255.245 264.189C253.489 263.015 252.12 261.347 251.312 259.395C250.504 257.443 250.293 255.295 250.706 253.223C251.119 251.151 252.137 249.248 253.632 247.755C255.126 246.261 257.03 245.245 259.103 244.834C261.175 244.423 263.323 244.636 265.274 245.446C267.225 246.256 268.893 247.626 270.065 249.384C271.237 251.141 271.862 253.207 271.86 255.32C271.861 256.723 271.586 258.112 271.05 259.409C270.513 260.705 269.727 261.883 268.735 262.875C267.743 263.867 266.565 264.653 265.269 265.19C263.972 265.726 262.583 266.001 261.18 266V265.99Z" fill="black" fill-opacity="0.7"/>
<path d="M261.18 262.72C265.267 262.72 268.58 259.407 268.58 255.32C268.58 251.233 265.267 247.92 261.18 247.92C257.093 247.92 253.78 251.233 253.78 255.32C253.78 259.407 257.093 262.72 261.18 262.72Z" fill="#263238"/>
<path d="M261.18 266.51C267.36 266.51 272.37 261.5 272.37 255.32C272.37 249.14 267.36 244.13 261.18 244.13C255 244.13 249.99 249.14 249.99 255.32C249.99 261.5 255 266.51 261.18 266.51Z" stroke="#263238" stroke-linecap="round" stroke-linejoin="round"/>
<path d="M276.21 255.31C276.229 258.708 275.094 262.012 272.99 264.681C270.886 267.35 267.939 269.225 264.63 270H257.73C254.411 269.249 251.446 267.392 249.322 264.733C247.198 262.075 246.041 258.773 246.041 255.37C246.041 251.967 247.198 248.665 249.322 246.007C251.446 243.348 254.411 241.491 257.73 240.74H264.63C267.919 241.51 270.851 243.368 272.953 246.012C275.054 248.656 276.202 251.932 276.21 255.31Z" stroke="#263238" stroke-linecap="round" stroke-linejoin="round"/>
<path d="M279.78 255.31C279.791 258.14 279.154 260.935 277.918 263.482C276.682 266.028 274.88 268.258 272.65 270H249.72C247.502 268.261 245.708 266.04 244.474 263.505C243.241 260.971 242.6 258.189 242.6 255.37C242.6 252.551 243.241 249.769 244.474 247.235C245.708 244.7 247.502 242.479 249.72 240.74H272.72C274.92 242.478 276.699 244.692 277.921 247.215C279.144 249.738 279.78 252.506 279.78 255.31Z" stroke="#263238" stroke-linecap="round" stroke-linejoin="round"/>
<path d="M312.64 216.26H298.8C298.071 216.26 297.48 216.851 297.48 217.58V221.1C297.48 221.829 298.071 222.42 298.8 222.42H312.64C313.369 222.42 313.96 221.829 313.96 221.1V217.58C313.96 216.851 313.369 216.26 312.64 216.26Z" fill="#BFBFBF" stroke="#263238" stroke-linecap="round" stroke-linejoin="round"/>
<path d="M306.26 217.48H299.22C298.8 217.48 298.46 217.82 298.46 218.24V219.05C298.46 219.47 298.8 219.81 299.22 219.81H306.26C306.68 219.81 307.02 219.47 307.02 219.05V218.24C307.02 217.82 306.68 217.48 306.26 217.48Z" fill="white"/>
<path d="M309.62 217.48H308.58C308.16 217.48 307.82 217.82 307.82 218.24V219.05C307.82 219.47 308.16 219.81 308.58 219.81H309.62C310.04 219.81 310.38 219.47 310.38 219.05V218.24C310.38 217.82 310.04 217.48 309.62 217.48Z" fill="white"/>
<path d="M229.36 218.58H222.88C222.118 218.58 221.5 219.198 221.5 219.96V223.07C221.5 223.832 222.118 224.45 222.88 224.45H229.36C230.122 224.45 230.74 223.832 230.74 223.07V219.96C230.74 219.198 230.122 218.58 229.36 218.58Z" fill="#263238"/>
<path opacity="0.2" d="M229.2 219.9H224.53C224.044 219.9 223.65 220.294 223.65 220.78V223C223.65 223.486 224.044 223.88 224.53 223.88H229.2C229.686 223.88 230.08 223.486 230.08 223V220.78C230.08 220.294 229.686 219.9 229.2 219.9Z" fill="white"/>
<path d="M474.88 329.08C470.88 324.73 462.22 321.2 459.25 314.27C458.02 311.354 455.997 308.842 453.41 307.02C451.762 305.865 450.431 304.314 449.54 302.51C446.85 296.99 441.86 292.05 435.32 282.82C427.61 271.95 424.24 262.65 421.47 259.29C418.7 255.93 411.39 250 411.39 250C408.39 242.69 404.73 240.1 404.73 240.1C404.73 240.1 400.11 231.4 396.35 228.23C392.59 225.06 387.65 224.87 382.51 225.07C377.37 225.27 366.22 222.69 366.22 222.69C366.22 222.69 349.47 218.93 343.74 218.93H331.67C331.67 218.93 328.31 219.73 326.73 222.1C325.15 224.47 314.66 241.48 312.09 248.8C309.52 256.12 308.92 260.27 309.91 264.23C310.9 268.19 313.28 276.89 313.28 276.89C313.28 276.89 318.81 293.31 319.01 295.48C319.21 297.65 331.47 299.64 331.87 289.35C331.87 289.35 333.45 295.68 335.87 299.64C338.29 303.6 345.16 301.81 346.35 300.03C346.35 300.03 351.1 312.1 351.49 315.03C351.88 317.96 356.44 318.19 359.01 315.62C361.58 313.05 363.76 303.95 362.17 299.4C362.17 299.4 372.47 287.93 374.45 281C374.45 281 386.22 278.58 387.65 279.69C388.016 281.856 389.153 283.816 390.85 285.21C390.85 285.21 397.98 302.21 397.78 325.71C397.78 325.71 403.7 350.83 431.2 351.62C458.7 352.41 466.2 369.42 466.2 369.42L486.9 338.5C486.9 338.5 478.84 333.43 474.88 329.08ZM361.14 262.25C357.784 266.396 354.805 270.833 352.24 275.51C351.07 277.76 349.55 280.58 348.18 283.27C348.18 283.27 347.3 277.27 346.31 276C346.31 276 353.63 256.12 354.22 254.93H364.9C368.26 254.93 373.41 254.14 375.19 255.93C372.42 256.71 363.32 259.48 361.14 262.25Z" fill="white"/>
<path opacity="0.4" d="M400 302.6C398.71 305.1 397.56 307.18 396.64 309.05C395.642 300.91 393.672 292.92 390.77 285.25C389.073 283.856 387.936 281.896 387.57 279.73C386.14 278.62 374.37 281.04 374.37 281.04C372.37 287.97 362.09 299.44 362.09 299.44C363.68 303.99 361.5 313.09 358.93 315.66C356.36 318.23 351.81 318.03 351.41 315.07C351.01 312.11 346.27 300.07 346.27 300.07C345.08 301.85 338.16 303.63 335.79 299.68C333.42 295.73 331.79 289.39 331.79 289.39C331.39 299.68 319.13 297.7 318.93 295.52C318.73 293.34 313.2 276.93 313.2 276.93C313.2 276.93 310.82 268.23 309.83 264.27C309.76 264.01 309.71 263.75 309.65 263.48C312.27 264.58 315.65 265.6 318.35 264.91C323.35 263.61 332.35 235.14 334.7 230.65C337.05 226.16 344.31 223.82 346.23 224.2C348.15 224.58 366.09 227.93 366.09 227.93C366.09 227.93 349.01 226.21 347 227.37C344.544 228.757 342.203 230.339 340 232.1C339.15 233.02 325.31 267.5 325.31 267.5C325.31 267.5 323.98 274.32 330.51 276.22C334.228 277.399 338.23 277.322 341.9 276C341.9 276 350.63 255.18 350.07 253.41C349.51 251.64 354.48 246.84 354.48 246.84C354.48 246.84 364.85 250.55 369.59 250.6C374.33 250.65 383.53 248.26 384.34 253.41C384.34 253.41 372.26 256.66 366.49 258.94C369.328 257.769 372.233 256.767 375.19 255.94C373.41 254.16 368.26 254.94 364.9 254.94H354.22C353.63 256.13 346.31 276.01 346.31 276.01C347.31 277.3 348.18 283.28 348.18 283.28C349.55 280.59 351.07 277.77 352.24 275.52C354.805 270.843 357.784 266.406 361.14 262.26C361.904 261.431 362.816 260.752 363.83 260.26C361.14 262.26 346.83 285.79 345.99 287.85C345.15 289.91 349.13 297.62 354.48 297.36C359.83 297.1 373.21 277 373.21 277C373.21 277 387.42 276.86 391.3 274.44C395.18 272.02 396.76 274.44 396.76 274.44C396.76 274.44 393.82 277.44 395.18 278.76C396.54 280.08 402.36 277.45 403.25 277.05C402.25 277.62 394.14 281.97 394.38 283.29C394.62 284.61 401.59 289.4 405.2 288.97C405.2 288.97 398.87 292.36 397.02 292.08C395.17 291.8 403.59 295.75 400 302.6Z" fill="#92E3A9"/>
<path opacity="0.4" d="M404.73 240.1C403.173 237.794 401.11 235.874 398.697 234.487C396.284 233.101 393.587 232.284 390.81 232.1C384.42 231.77 389.2 227.1 396.01 228L396.33 228.26C400.11 231.4 404.73 240.1 404.73 240.1Z" fill="#92E3A9"/>
<path opacity="0.4" d="M411.39 250C408.363 249.037 405.207 248.542 402.03 248.53C400.83 248.53 404.75 245.47 408.29 244.11C409.527 245.959 410.566 247.933 411.39 250Z" fill="#92E3A9"/>
<path opacity="0.4" d="M482 335.2C474.47 332.58 461.83 329.09 459.75 322.38C457.38 314.74 453.16 315.53 450.75 312.5C448.53 309.66 448.62 300.89 444.75 295.28C446.569 297.522 448.154 299.945 449.48 302.51C450.371 304.314 451.702 305.865 453.35 307.02C455.937 308.842 457.96 311.354 459.19 314.27C462.19 321.2 470.86 324.73 474.82 329.08C477.019 331.337 479.423 333.386 482 335.2Z" fill="#92E3A9"/>
<path d="M373.21 227.64C369.65 228.43 352.44 227.24 350.46 226.85C348.48 226.46 342.75 228.63 340.97 230.6C339.19 232.57 324.75 267.4 324.75 270C324.75 272.6 327.12 277.71 328.15 279.76C329.18 281.81 331.87 289.38 331.87 289.38" stroke="#263238" stroke-linecap="round" stroke-linejoin="round"/>
<path d="M486.87 338.54C486.87 338.54 478.87 333.43 474.87 329.08C470.87 324.73 462.21 321.2 459.24 314.27C458.01 311.354 455.987 308.842 453.4 307.02C451.752 305.865 450.421 304.314 449.53 302.51C446.84 296.99 441.85 292.05 435.31 282.82C427.6 271.95 424.23 262.65 421.46 259.29C418.69 255.93 411.39 250 411.39 250C408.39 242.69 404.73 240.1 404.73 240.1C404.73 240.1 400.11 231.4 396.35 228.23C392.59 225.06 387.65 224.87 382.51 225.07C377.37 225.27 366.22 222.69 366.22 222.69C366.22 222.69 349.47 218.93 343.74 218.93H331.67C331.67 218.93 328.31 219.73 326.73 222.1C325.15 224.47 314.66 241.48 312.09 248.8C309.52 256.12 308.92 260.27 309.91 264.23C310.9 268.19 313.28 276.89 313.28 276.89C313.28 276.89 318.81 293.31 319.01 295.48C319.21 297.65 331.47 299.64 331.87 289.35C331.87 289.35 333.45 295.68 335.87 299.64C338.29 303.6 345.16 301.81 346.35 300.03C346.35 300.03 351.1 312.1 351.49 315.03C351.88 317.96 356.44 318.19 359.01 315.62C361.58 313.05 363.76 303.95 362.17 299.4C362.17 299.4 372.47 287.93 374.45 281C374.45 281 386.22 278.58 387.65 279.69C388.016 281.856 389.153 283.816 390.85 285.21C393.12 291.163 394.795 297.327 395.85 303.61C396.98 309.84 394.78 320.61 400.63 328.67" stroke="#263238" stroke-linecap="round" stroke-linejoin="round"/>
<path d="M346.31 300C346.31 300 344.73 294.07 344.73 291.7C344.73 289.33 349.47 280.82 352.24 275.48C354.805 270.803 357.784 266.366 361.14 262.22C363.32 259.45 372.42 256.68 375.19 255.89C377.96 255.1 385.39 253.52 387.61 251.94" stroke="#263238" stroke-linecap="round" stroke-linejoin="round"/>
<path d="M348.18 283.27C348.18 283.27 347.3 277.27 346.31 276C346.31 276 353.63 256.12 354.22 254.93C354.81 253.74 354.22 250 354.22 250" stroke="#263238" stroke-linecap="round" stroke-linejoin="round"/>
<path d="M354.22 254.93H364.9C368.26 254.93 373.41 254.14 375.19 255.93" stroke="#263238" stroke-linecap="round" stroke-linejoin="round"/>
<path d="M387.61 279.73C389.755 279.294 391.79 278.433 393.597 277.199C395.404 275.964 396.945 274.38 398.13 272.54" stroke="#263238" stroke-linecap="round" stroke-linejoin="round"/>
<path d="M388.7 279.48C392.87 282.63 405.45 278.48 411.39 271.55" stroke="#263238" stroke-linecap="round" stroke-linejoin="round"/>
<path d="M390.81 285.25C390.81 285.25 402.68 291.25 410.4 288.01" stroke="#263238" stroke-linecap="round" stroke-linejoin="round"/>
<path d="M13.13 323.83L30.13 357.05C30.13 357.05 38.76 340.58 66.25 341.62C93.74 342.66 101.3 318 101.3 318C102.68 294.5 110.91 278.06 110.91 278.06C112.704 276.786 113.973 274.902 114.48 272.76C115.98 271.76 127.56 274.95 127.56 274.95C129.07 281.95 138.56 294.12 138.56 294.12C136.68 298.56 138.24 307.78 140.64 310.52C143.04 313.26 147.58 313.36 148.18 310.43C148.78 307.5 154.31 295.77 154.31 295.77C155.38 297.63 162.17 299.87 164.8 296.08C166.736 292.943 168.291 289.586 169.43 286.08C169.14 296.37 181.51 295.21 181.85 293.08C182.19 290.95 188.85 274.91 188.85 274.91C188.85 274.91 191.8 266.38 193.05 262.5C194.3 258.62 193.98 254.43 191.9 246.96C189.82 239.49 180.5 221.81 179.08 219.34C177.66 216.87 174.36 215.85 174.36 215.85L162.36 215.05C156.64 214.66 139.68 217.3 139.68 217.3C139.68 217.3 128.39 219.12 123.27 218.58C118.15 218.04 113.2 217.9 109.27 220.81C105.34 223.72 100 232.07 100 232.07C100 232.07 96.15 234.42 92.7 241.51C92.7 241.51 85 246.93 82.01 250.1C79.02 253.27 75.01 262.32 66.63 272.66C59.48 281.43 54.18 286.03 51.13 291.35C50.1303 293.09 48.7103 294.551 47 295.6C44.3 297.251 42.1147 299.624 40.69 302.45C37.27 309.15 28.35 312.09 24.11 316.17C20.7565 319.137 17.0722 321.707 13.13 323.83ZM128.46 249.83C130.36 248.18 135.46 249.31 138.79 249.53L149.45 250.25C149.96 251.47 155.94 271.79 155.94 271.79C154.86 273.01 153.58 278.92 153.58 278.92C152.4 276.15 151.07 273.23 150.05 270.92C147.801 266.087 145.123 261.465 142.05 257.11C140.07 254.18 131.17 250.81 128.46 249.83Z" fill="white"/>
<path opacity="0.4" d="M130.71 250.68C131.58 251.02 132.58 251.42 133.61 251.87L130.71 250.68Z" fill="#92E3A9"/>
<path opacity="0.4" d="M193 262.47C191.75 266.35 188.8 274.88 188.8 274.88C188.8 274.88 182.17 290.88 181.8 293.05C181.43 295.22 169.09 296.36 169.38 286.05C168.241 289.556 166.686 292.913 164.75 296.05C162.12 299.84 155.33 297.6 154.26 295.74C154.26 295.74 148.72 307.47 148.13 310.4C147.54 313.33 142.98 313.23 140.59 310.49C138.2 307.75 136.59 298.49 138.51 294.09C138.51 294.09 129 281.96 127.51 274.92C127.51 274.92 115.93 271.72 114.43 272.73C113.923 274.872 112.654 276.756 110.86 278.03C107.431 285.551 104.919 293.458 103.38 301.58C102.58 299.52 101.53 297.22 100.38 294.41C97.38 287.3 106.06 284 104.2 284.13C102.34 284.26 96.29 280.4 96.29 280.4C99.86 281.1 107.14 276.94 107.51 275.56C107.88 274.18 100.22 269.35 99.16 268.67C100.06 269.15 105.73 272.13 107.07 270.98C108.41 269.83 105.82 266.56 105.82 266.56C105.82 266.56 107.59 264.28 111.26 266.98C114.93 269.68 129.11 271 129.11 271C129.11 271 140.9 292 146.22 292.68C151.54 293.36 156.09 285.97 155.42 283.85C154.75 281.73 143 258.61 140 255.22C140.786 255.721 141.479 256.354 142.05 257.09C145.123 261.445 147.801 266.067 150.05 270.9C151.05 273.23 152.4 276.15 153.58 278.9C153.58 278.9 154.86 272.99 155.94 271.77C155.94 271.77 149.94 251.45 149.45 250.23L138.79 249.51C135.46 249.29 130.41 248.17 128.49 249.79C123.96 248.04 119.83 246.58 119.83 246.58C121.04 241.51 130.01 244.58 134.75 244.91C139.49 245.24 150.1 242.33 150.1 242.33C150.1 242.33 154.69 247.49 154 249.22C153.31 250.95 160.41 272.37 160.41 272.37C163.946 273.912 167.887 274.263 171.64 273.37C178.3 271.98 177.49 265.08 177.49 265.08C177.49 265.08 166.35 229.63 165.57 228.66C163.525 226.732 161.324 224.976 158.99 223.41C157.07 222.09 139.92 222.49 139.92 222.49C139.92 222.49 158.06 220.49 160 220.3C161.94 220.11 169 222.96 171 227.62C173 232.28 179.77 261.35 184.67 263.03C187.14 263.94 190.41 263.31 193 262.47Z" fill="#92E3A9"/>
<path opacity="0.4" d="M115 224.81C112.214 224.785 109.459 225.398 106.946 226.601C104.433 227.803 102.228 229.565 100.5 231.75L100.37 231.53C101.58 229.64 105.82 223.25 109.17 220.79C109.381 220.628 109.602 220.477 109.83 220.34C116.88 219.79 121.51 225 115 224.81Z" fill="#92E3A9"/>
<path opacity="0.4" d="M102.57 240.36C99.4035 240.137 96.2216 240.39 93.13 241.11L93 241C93.9764 239.028 95.1633 237.167 96.54 235.45C100 237 103.78 240.47 102.57 240.36Z" fill="#92E3A9"/>
<path opacity="0.4" d="M54.29 286.9C51.74 292 51 298.22 49 300.39C46.4 303.23 42.25 302.12 39.3 309.56C37.08 315.14 27.35 317.78 19.76 319.7C21.2938 318.631 22.7476 317.451 24.11 316.17C28.35 312.09 37.27 309.17 40.69 302.45C42.1147 299.624 44.3 297.251 47 295.6C48.725 294.556 50.1591 293.095 51.17 291.35C52.0875 289.784 53.1309 288.296 54.29 286.9Z" fill="#92E3A9"/>
<path d="M169.45 286.08C169.45 286.08 172.65 278.71 173.81 276.73C174.97 274.75 177.68 269.73 177.81 267.21C177.94 264.69 165.94 229 164.29 226.86C162.64 224.72 157.07 222.21 155.07 222.47C153.07 222.73 135.82 222.77 132.32 221.74" stroke="#263238" stroke-linecap="round" stroke-linejoin="round"/>
<path d="M13.13 323.83C17.0792 321.708 20.7703 319.138 24.13 316.17C28.37 312.09 37.29 309.17 40.71 302.45C42.1292 299.626 44.3074 297.254 47 295.6C48.725 294.556 50.1591 293.095 51.17 291.35C54.17 286.03 59.52 281.43 66.67 272.66C75.09 262.32 79.07 253.27 82.05 250.1C85.03 246.93 92.74 241.51 92.74 241.51C96.19 234.42 100.04 232.07 100.04 232.07C100.04 232.07 105.23 223.7 109.19 220.79C113.15 217.88 118.1 218.02 123.19 218.56C128.28 219.1 139.6 217.28 139.6 217.28C139.6 217.28 156.6 214.64 162.28 215.03L174.28 215.83C174.28 215.83 177.58 216.83 179 219.32C180.42 221.81 189.75 239.47 191.82 246.94C193.89 254.41 194.22 258.6 192.97 262.48C191.72 266.36 188.77 274.89 188.77 274.89C188.77 274.89 182.14 290.89 181.77 293.06C181.4 295.23 169.06 296.37 169.35 286.06C168.211 289.566 166.656 292.923 164.72 296.06C162.09 299.85 155.3 297.61 154.23 295.75C154.23 295.75 148.69 307.48 148.1 310.41C147.51 313.34 142.95 313.24 140.56 310.5C138.17 307.76 136.56 298.5 138.48 294.1C138.48 294.1 128.97 281.97 127.48 274.93C127.48 274.93 115.9 271.73 114.4 272.74C113.893 274.882 112.624 276.766 110.83 278.04C108.162 283.819 106.075 289.849 104.6 296.04C103.06 302.18 104.54 313.04 98.16 320.73" stroke="#263238" stroke-linecap="round" stroke-linejoin="round"/>
<path d="M154.33 295.77C154.33 295.77 156.33 289.96 156.47 287.59C156.61 285.22 152.47 276.42 150.05 270.9C147.801 266.067 145.123 261.445 142.05 257.09C140.05 254.18 131.17 250.81 128.46 249.83C125.75 248.85 118.46 246.83 116.34 245.06" stroke="#263238" stroke-linecap="round" stroke-linejoin="round"/>
<path d="M153.58 278.92C153.58 278.92 154.86 273.01 155.94 271.79C155.94 271.79 149.94 251.47 149.45 250.25C148.96 249.03 149.78 245.32 149.78 245.32" stroke="#263238" stroke-linecap="round" stroke-linejoin="round"/>
<path d="M149.45 250.25L138.79 249.53C135.44 249.31 130.36 248.18 128.46 249.83" stroke="#263238" stroke-linecap="round" stroke-linejoin="round"/>
<path d="M114.48 272.76C112.372 272.179 110.401 271.183 108.684 269.83C106.967 268.477 105.537 266.794 104.48 264.88" stroke="#263238" stroke-linecap="round" stroke-linejoin="round"/>
<path d="M113.41 272.43C109 275.3 96.76 270.31 91.3 263" stroke="#263238" stroke-linecap="round" stroke-linejoin="round"/>
<path d="M110.91 278.06C110.91 278.06 98.67 283.22 91.19 279.5" stroke="#263238" stroke-linecap="round" stroke-linejoin="round"/>
</svg>
